<?xml version="1.0" encoding="utf-8"?>
<!-- Generator: Adobe Illustrator 20.0.0, SVG Export Plug-In . SVG Version: 6.00 Build 0)  -->
<svg version="1.1" id="icon" xmlns="http://www.w3.org/2000/svg" xmlns:xlink="http://www.w3.org/1999/xlink" x="0px" y="0px"
	 viewBox="0 0 512 512" style="enable-background:new 0 0 512 512;" xml:space="preserve">
<style type="text/css">
	.st0{fill:#b7974f;}
</style>
<path class="st0" d="M408.2039795,230.7221069l17.6887207,10.9502563l35.1209106-56.737854L256,58.0140991L50.9863892,184.9345093
	l35.121521,56.737854l17.6915283-10.9502563V411.201416H62.8696289v42.7844849h386.2584839V411.201416h-40.9241333V230.7221069z
	 M89.7581787,226.1529541l-23.25177-37.5687256L256,71.2762451l189.4942017,117.3079834l-23.25177,37.5687256L256,123.2442017
	L89.7581787,226.1529541z M329.0560303,374.3870239v-25.5445557h67.8729858v25.5445557H329.0560303z M396.9290161,385.6619873
	v25.5394287h-67.8729858v-25.5394287H396.9290161z M329.0560303,337.5675049v-25.5479126h67.8729858v25.5479126H329.0560303z
	 M329.0560303,300.7446289v-25.6104736h67.8729858v25.6104736H329.0560303z M329.0560303,263.8591919v-1.0406494
	c0-7.0688477-2.3451538-13.5818481-6.2564697-18.869751h74.1294556v19.9104004H329.0560303z M307.3540649,232.6738281
	c-3.1846313-1.0733643-6.5817871-1.678833-10.1243896-1.678833h-82.5940552c-3.5426025,0-6.939209,0.6054688-10.1243896,1.678833
	h-89.4368286v-8.9326172l35.944519-22.2493896h209.9627075l35.9473877,22.2522583v8.9297485H307.3540649z M202.4857178,344.4052124
	c11.7428589,0,21.2972412-9.5549316,21.2972412-21.2977905c0-11.7429199-9.5543823-21.2973022-21.2972412-21.2973022h-8.4015503
	v-38.9915771c0-11.3302002,9.2189941-20.548645,20.5514526-20.548645h82.5940552
	c11.3330078,0,20.5514526,9.2184448,20.5514526,20.548645V411.201416H194.0841675v-66.7962036H202.4857178z M194.0841675,333.130249
	v-20.045166h8.4015503c5.5269775,0,10.0222778,4.4953003,10.0222778,10.0223389
	c0,5.5275269-4.4953003,10.0228271-10.0222778,10.0228271H194.0841675z M115.0744019,374.3870239v-25.5445557h67.7348022v25.5445557
	H115.0744019z M182.8092041,385.6619873v25.5394287h-67.7348022v-25.5394287H182.8092041z M115.0744019,337.5675049v-25.5479126
	h67.7348022v25.5479126H115.0744019z M115.0744019,300.7446289v-25.6104736h67.7348022v25.6104736H115.0744019z
	 M115.0744019,263.8591919v-19.9104004h73.9918823c-3.9118652,5.2879028-6.2570801,11.8009033-6.2570801,18.869751v1.0406494
	H115.0744019z M169.2330322,190.2168579L256,136.5063477l86.7675171,53.7105103H169.2330322z M437.8531494,422.4763794v20.2345581
	H74.1445923v-20.2345581H437.8531494z"/>
</svg>
