<?xml version="1.0" encoding="UTF-8"?>
<!DOCTYPE svg PUBLIC "-//W3C//DTD SVG 1.1//EN" "http://www.w3.org/Graphics/SVG/1.1/DTD/svg11.dtd">
<!-- Creator: CorelDRAW -->
<svg xmlns="http://www.w3.org/2000/svg" xml:space="preserve" width="1.70666in" height="1.70666in" version="1.1" style="shape-rendering:geometricPrecision; text-rendering:geometricPrecision; image-rendering:optimizeQuality; fill-rule:evenodd; clip-rule:evenodd"
viewBox="0 0 1707 1707"
 xmlns:xlink="http://www.w3.org/1999/xlink">
 <defs>
  <style type="text/css">
   <![CDATA[
    .fil0 {fill:#b7974f}
   ]]>
  </style>
 </defs>
 <g id="Layer_x0020_1">
  <metadata id="CorelCorpID_0Corel-Layer"/>
  <g id="_533781600">
   <g>
    <g>
     <path class="fil0" d="M1578 1493l-1450 0c-71,0 -128,-57 -128,-127l0 -1025c0,-71 57,-127 128,-127l1451 0c71,0 128,56 128,127l0 1025c-2,70 -59,127 -129,127zm-1450 -1231c-43,0 -79,35 -79,79l0 1025c0,43 34,79 79,79l1451 0c43,0 79,-35 79,-79l0 -1025c0,-43 -35,-79 -79,-79l-1451 0z"/>
    </g>
    <g>
     <g>
      <path class="fil0" d="M535 817c-62,0 -114,-52 -114,-114 0,-62 52,-114 114,-114 63,0 114,52 114,114 0,62 -51,114 -114,114zm0 -178c-36,0 -65,29 -65,65 0,36 29,65 65,65 36,0 65,-29 65,-65 0,-36 -29,-65 -65,-65z"/>
     </g>
     <g>
      <path class="fil0" d="M769 1116l-467 0c-14,0 -25,-11 -25,-25 0,-168 131,-256 258,-256 128,0 258,88 258,256 1,14 -10,25 -24,25zm-442 -48l418 0c-12,-127 -114,-183 -210,-183 -96,0 -197,56 -208,183z"/>
     </g>
    </g>
    <g>
     <path class="fil0" d="M836 1282l-602 0c-39,0 -69,-30 -69,-70l0 -718c0,-39 30,-70 69,-70l601 0c38,0 70,31 70,70l0 718c0,39 -30,70 -69,70zm-602 -809c-11,0 -20,9 -20,21l0 718c0,12 8,22 20,22l601 0c12,0 22,-10 22,-22l0 -718c0,-12 -10,-21 -22,-21l-601 0z"/>
    </g>
    <g>
     <path class="fil0" d="M1492 512l-361 0c-14,0 -25,-12 -25,-25 0,-14 11,-25 25,-25l362 0c14,0 25,11 25,25 0,13 -12,25 -26,25z"/>
    </g>
    <g>
     <path class="fil0" d="M1492 674l-361 0c-14,0 -25,-11 -25,-25 0,-14 11,-25 25,-25l362 0c14,0 25,11 25,25 0,14 -12,25 -26,25z"/>
    </g>
    <g>
     <path class="fil0" d="M1492 836l-361 0c-14,0 -25,-11 -25,-25 0,-14 11,-25 25,-25l362 0c14,0 25,11 25,25 0,14 -12,25 -26,25z"/>
    </g>
    <g>
     <path class="fil0" d="M1492 998l-361 0c-14,0 -25,-11 -25,-25 0,-14 11,-25 25,-25l362 0c14,0 25,11 25,25 0,14 -12,25 -26,25z"/>
    </g>
    <g>
     <path class="fil0" d="M1130 1244c-1,0 -4,0 -6,-2 -8,-3 -15,-8 -16,-16l-25 -95c-3,-12 4,-26 16,-29 13,-4 27,4 30,17l13 53 45 -46c4,-4 11,-7 16,-7 7,0 13,3 17,7l55 55 235 -64c12,-4 26,5 29,17 4,13 -4,26 -17,29l-248 67c-8,3 -18,0 -23,-7l-48 -47 -58 58c-3,7 -8,10 -15,10z"/>
    </g>
   </g>
  </g>
 </g>
</svg>
