<?xml version="1.0" encoding="utf-8"?>
<!-- Generator: Adobe Illustrator 25.4.1, SVG Export Plug-In . SVG Version: 6.00 Build 0)  -->
<svg version="1.0" id="Layer_1" xmlns="http://www.w3.org/2000/svg" xmlns:xlink="http://www.w3.org/1999/xlink" x="0px" y="0px"
	 viewBox="0 0 64 64" style="enable-background:new 0 0 64 64;" xml:space="preserve">
<style type="text/css">
	.st0{fill:#ffffff;stroke:#b7974f;stroke-width:2;stroke-linecap:round;stroke-linejoin:round;stroke-miterlimit:10;}
</style>
<g>
	<path class="st0" d="M3.17,49.54V15.89c0-3.95,3.21-7.16,7.16-7.16c1.97,0,3.76,0.8,5.06,2.1s2.1,3.09,2.1,5.06v33.65"/>
	<ellipse class="st0" cx="10.32" cy="49.54" rx="7.16" ry="5.72"/>
	<rect x="17.48" y="15.89" class="st0" width="43.36" height="32.91"/>
	<g>
		<g>
			<polyline class="st0" points="47.21,44.22 47.21,45.61 31.19,45.61 31.19,31.1 47.21,31.1 47.21,44.22 			"/>
			<polygon class="st0" points="49.58,31.1 28.82,31.1 39.2,19.09 			"/>
			<rect x="36.77" y="37.96" class="st0" width="4.87" height="7.65"/>
		</g>
	</g>
	<polyline class="st0" points="25.55,20.29 23.75,20.29 23.75,26.3 	"/>
	<polyline class="st0" points="52.84,45.61 54.65,45.61 54.65,39.6 	"/>
	<line class="st0" x1="22.62" y1="52.99" x2="56.98" y2="52.99"/>
	<line class="st0" x1="21.98" y1="11.65" x2="52.84" y2="11.65"/>
</g>
</svg>
