<?xml version="1.0" encoding="UTF-8"?>
<!DOCTYPE svg PUBLIC "-//W3C//DTD SVG 1.1//EN" "http://www.w3.org/Graphics/SVG/1.1/DTD/svg11.dtd">
<!-- Creator: CorelDRAW -->
<svg xmlns="http://www.w3.org/2000/svg" xml:space="preserve" width="173.397mm" height="173.397mm" style="shape-rendering:geometricPrecision; text-rendering:geometricPrecision; image-rendering:optimizeQuality; fill-rule:evenodd; clip-rule:evenodd"
viewBox="0 0 173.397 173.397"
 xmlns:xlink="http://www.w3.org/1999/xlink">
 <defs>
  <style type="text/css">
   <![CDATA[
    .fil1 {fill:none}
    .fil0 {fill:#b7974f}
   ]]>
  </style>
 </defs>
 <g id="Layer_x0020_1">
  <metadata id="CorelCorpID_0Corel-Layer"/>
  <g id="_486351480">
   <path id="_486353208" class="fil0" d="M152.46 152.368l-131.523 0c-0.7415,0 -1.3426,-0.6012 -1.3426,-1.3426l0 -86.946c0,-0.7413 0.6011,-1.3425 1.3426,-1.3425 0.7415,-0.0001 1.3426,0.6014 1.3426,1.3427l0 85.6031 128.838 0 0 -85.6033c0,-0.7413 0.601,-1.3425 1.3427,-1.3425 0.7415,-0.0001 1.3426,0.6014 1.3426,1.3427l0.0001 86.9458c0,0.7413 -0.6012,1.3427 -1.3427,1.3426z"/>
   <path id="_486353760" class="fil0" d="M116.586 47.429l-59.7747 0c-0.7413,0 -1.3427,-0.6014 -1.3427,-1.3426 0.0001,-0.7414 0.6014,-1.3427 1.3427,-1.3427l59.7747 -0.0001c0.7413,0 1.3427,0.6015 1.3427,1.3428 0,0.7412 -0.6014,1.3426 -1.3427,1.3426z"/>
   <path id="_486353160" class="fil0" d="M74.9635 62.4188l-48.0389 0c-0.7415,0 -1.3426,-0.6014 -1.3426,-1.3425 0,-0.7415 0.6011,-1.3428 1.3426,-1.3428l48.0389 0c0.7413,0 1.3427,0.6015 1.3427,1.3428 0,0.741 -0.6014,1.3426 -1.3427,1.3425zm71.5093 0l-48.0388 0c-0.7413,0 -1.3428,-0.6014 -1.3428,-1.3425 0,-0.7415 0.6015,-1.3428 1.3428,-1.3428l48.0388 0c0.7416,0 1.3426,0.6015 1.3426,1.3428 0,0.741 -0.601,1.3426 -1.3426,1.3425z"/>
   <path id="_486352728" class="fil0" d="M74.9635 77.4086l-54.0263 0c-0.7415,0 -1.3426,-0.5978 -1.3426,-1.3426 0,-0.7413 0.6011,-1.3426 1.3426,-1.3426l54.0263 -0.0001c0.7413,0 1.3427,0.6015 1.3427,1.3427 0,0.7447 -0.6014,1.3427 -1.3427,1.3426zm77.4968 0l-54.0263 0c-0.7413,0 -1.3428,-0.5978 -1.3428,-1.3426 0,-0.7413 0.6015,-1.3426 1.3428,-1.3426l54.0263 -0.0001c0.7415,0 1.3426,0.6015 1.3426,1.3427 0.0001,0.7447 -0.6011,1.3427 -1.3426,1.3426z"/>
   <path id="_486352512" class="fil0" d="M33.6388 107.392l-12.7016 0c-0.7415,0 -1.3426,-0.6015 -1.3426,-1.3427 0,-0.7414 0.6011,-1.3427 1.3426,-1.3427l12.7016 -0.0002c0.7415,0 1.3426,0.6016 1.3426,1.3429 0,0.7411 -0.6011,1.3427 -1.3426,1.3427zm39.1366 0l-12.7017 0c-0.7412,0 -1.3426,-0.6015 -1.3426,-1.3427 0,-0.7414 0.6013,-1.3427 1.3426,-1.3427l12.7017 -0.0002c0.7416,0 1.3427,0.6016 1.3427,1.3429 0,0.7411 -0.6011,1.3427 -1.3427,1.3427zm40.5484 0l-12.7017 0c-0.7416,0 -1.3427,-0.6015 -1.3427,-1.3427 0,-0.7414 0.6011,-1.3427 1.3427,-1.3427l12.7017 -0.0002c0.7413,0 1.3426,0.6016 1.3426,1.3429 0.0001,0.7411 -0.6013,1.3427 -1.3426,1.3427zm39.1365 0l-12.7017 0c-0.7416,0 -1.3427,-0.6015 -1.3427,-1.3427 0,-0.7414 0.601,-1.3427 1.3427,-1.3427l12.7017 -0.0002c0.7415,0 1.3426,0.6016 1.3426,1.3429 0.0001,0.7411 -0.6011,1.3427 -1.3426,1.3427z"/>
   <path id="_486353064" class="fil0" d="M33.6388 92.4018l-12.7016 0c-0.7415,0 -1.3426,-0.6012 -1.3426,-1.3424 0,-0.7414 0.6011,-1.3427 1.3426,-1.3427l12.7016 -0.0001c0.7415,0 1.3426,0.6015 1.3426,1.3428 0,0.7412 -0.6011,1.3426 -1.3426,1.3424zm79.685 0l-53.2501 0c-0.7412,0 -1.3426,-0.6012 -1.3426,-1.3424 0,-0.7414 0.6013,-1.3427 1.3426,-1.3427l53.2501 -0.0001c0.7413,0 1.3426,0.6015 1.3426,1.3428 0.0001,0.7412 -0.6013,1.3426 -1.3426,1.3424zm39.1365 0l-12.7017 0c-0.7416,0 -1.3427,-0.6012 -1.3427,-1.3424 0,-0.7414 0.601,-1.3427 1.3427,-1.3427l12.7017 -0.0001c0.7415,0 1.3426,0.6015 1.3426,1.3428 0.0001,0.7412 -0.6011,1.3426 -1.3426,1.3424z"/>
   <path id="_486352944" class="fil0" d="M100.622 152.368c-0.7416,0 -1.3427,-0.6012 -1.3427,-1.3426l0 -51.3927 -25.1613 0 0 51.3927c0,0.7413 -0.6011,1.3427 -1.3428,1.3427 -0.7411,-0.0001 -1.3423,-0.6013 -1.3423,-1.3427l0 -52.7354c0,-0.7413 0.6011,-1.3426 1.3423,-1.3426l27.8468 -0.0002c0.7413,0 1.3424,0.6016 1.3424,1.3429l0 52.7353c0,0.7413 -0.6012,1.3427 -1.3424,1.3426z"/>
   <path id="_486352800" class="fil0" d="M152.46 122.385l-12.7017 0c-0.7416,0 -1.3427,-0.6013 -1.3427,-1.3427 0,-0.7411 0.601,-1.3426 1.3427,-1.3426l12.7017 -0.0002c0.7415,0 1.3426,0.6017 1.3426,1.3428 0.0001,0.7412 -0.6011,1.3428 -1.3426,1.3427z"/>
   <path id="_486351840" class="fil0" d="M113.324 122.385l-12.7017 0c-0.7416,0 -1.3427,-0.6013 -1.3427,-1.3427 0,-0.7411 0.6011,-1.3426 1.3427,-1.3426l12.7017 -0.0002c0.7413,0 1.3426,0.6017 1.3426,1.3428 0.0001,0.7412 -0.6013,1.3428 -1.3426,1.3427z"/>
   <path id="_486351696" class="fil0" d="M72.7754 122.385l-12.7017 0c-0.7412,0 -1.3426,-0.6013 -1.3426,-1.3427 0,-0.7411 0.6013,-1.3426 1.3426,-1.3426l12.7017 -0.0002c0.7416,0 1.3427,0.6017 1.3427,1.3428 0,0.7412 -0.6011,1.3428 -1.3427,1.3427z"/>
   <path id="_486352224" class="fil0" d="M33.6388 122.385l-12.7016 0c-0.7415,0 -1.3426,-0.6013 -1.3426,-1.3427 0,-0.7411 0.6011,-1.3426 1.3426,-1.3426l12.7016 -0.0002c0.7415,0 1.3426,0.6017 1.3426,1.3428 0,0.7412 -0.6011,1.3428 -1.3426,1.3427z"/>
   <path id="_486352296" class="fil0" d="M72.7754 137.375l-51.8382 0c-0.7415,0 -1.3426,-0.6013 -1.3426,-1.3425 0,-0.7414 0.6011,-1.3427 1.3426,-1.3427l51.8382 -0.0001c0.7416,0 1.3427,0.6014 1.3427,1.3428 0,0.741 -0.6011,1.3426 -1.3427,1.3425zm79.6849 0l-51.8382 0c-0.7416,0 -1.3427,-0.6013 -1.3427,-1.3425 0,-0.7414 0.6011,-1.3427 1.3427,-1.3427l51.8382 -0.0001c0.7415,0 1.3426,0.6014 1.3426,1.3428 0.0001,0.741 -0.6011,1.3426 -1.3426,1.3425z"/>
   <path id="_486352080" class="fil0" d="M13.7752 58.4852l0.0036 0 -0.0036 0zm72.9236 -28.7349c0.2062,0 0.4125,0.0491 0.6017,0.1434l69.2514 34.7351c1.362,0.6817 3.0243,0.1258 3.7057,-1.2343 0.3301,-0.661 0.3833,-1.4092 0.1496,-2.112 -0.2332,-0.6993 -0.7252,-1.2658 -1.3853,-1.5945l-70.7402 -35.4868c-0.0371,-0.0174 -0.0732,-0.0383 -0.1085,-0.0594 -0.7797,-0.4861 -1.7248,-0.5559 -2.5598,-0.2027 -0.0486,0.0348 -0.0996,0.0629 -0.1535,0.0909l-71.0827 35.6546c-0.0004,0.0034 -0.0012,0.0034 -0.0016,0.0034 -0.6601,0.3287 -1.1521,0.8952 -1.3856,1.5945 -0.2334,0.7026 -0.18,1.4511 0.1499,2.112 0.681,1.3635 2.3435,1.9161 3.7071,1.2343l69.2497 -34.7352c0.1895,-0.0943 0.3957,-0.1432 0.6021,-0.1433zm71.0784 37.854c-0.8179,0 -1.6473,-0.1818 -2.4274,-0.5734l-68.651 -34.4344 -68.6495 34.4343c-2.6892,1.3427 -5.9682,0.2518 -7.3112,-2.437 -0.3864,-0.7724 -0.5805,-1.6076 -0.578,-2.4471 0.0017,-0.5743 0.0953,-1.1507 0.2823,-1.7103 0.4603,-1.3812 1.4307,-2.5001 2.7325,-3.1504l70.8892 -35.5604c0.0573,-0.0419 0.1185,-0.0768 0.1839,-0.1117 1.6969,-0.8498 3.6693,-0.7692 5.2893,0.2133l70.6868 35.4586c1.3004,0.6504 2.2706,1.7694 2.7308,3.1506 0.4601,1.3774 0.3552,2.8566 -0.2955,4.1574 -0.9535,1.9089 -2.8822,3.0105 -4.8822,3.0105z"/>
   <path id="_486352056" class="fil0" d="M34.9814 124.815l23.7497 0 0 -37.5289 -23.7497 0 0 37.5289zm25.0923 2.6853l-26.4349 0c-0.7415,0 -1.3426,-0.6013 -1.3426,-1.3426l0 -40.2142c0,-0.7448 0.6011,-1.3426 1.3426,-1.3426l26.4349 -0.0002c0.7417,0 1.3427,0.5981 1.3427,1.3429l0 40.214c0,0.7413 -0.601,1.3427 -1.3427,1.3427z"/>
   <path id="_486352248" class="fil0" d="M46.8563 127.501c-0.7416,0 -1.3427,-0.6013 -1.3427,-1.3426l0 -40.2142c0,-0.7448 0.6011,-1.3426 1.3427,-1.3426 0.7416,-0.0002 1.3427,0.5979 1.3427,1.3427l0.0001 40.214c0,0.7413 -0.6012,1.3427 -1.3428,1.3427z"/>
   <path id="_486352176" class="fil0" d="M114.667 124.815l23.7494 0 0 -37.5289 -23.7494 0 0 37.5289zm25.0921 2.6853l-26.4348 0c-0.7417,0 -1.3427,-0.6013 -1.3427,-1.3426l0 -40.2142c0,-0.7448 0.601,-1.3426 1.3427,-1.3426l26.4348 -0.0002c0.7416,0 1.3426,0.5981 1.3426,1.3429l0.0001 40.214c0,0.7413 -0.6011,1.3427 -1.3427,1.3427z"/>
   <path id="_486351912" class="fil0" d="M126.541 127.501c-0.7415,0 -1.3426,-0.6013 -1.3426,-1.3426l0 -40.2142c0,-0.7448 0.6011,-1.3426 1.3426,-1.3426 0.7417,-0.0002 1.3428,0.5979 1.3428,1.3427l0.0001 40.214c0,0.7413 -0.6012,1.3427 -1.3429,1.3427z"/>
   <path id="_486352128" class="fil0" d="M97.1052 132.633l-4.1235 0c-0.7413,0 -1.3423,-0.6012 -1.3423,-1.3424 0,-0.7414 0.601,-1.3427 1.3423,-1.3427l4.1235 -0.0001c0.7417,0 1.3427,0.6015 1.3427,1.3428 0,0.7412 -0.601,1.3426 -1.3427,1.3424z"/>
   <path id="_486351504" class="fil0" d="M86.6988 55.992c-6.9369,0 -12.5807,5.6437 -12.5807,12.5809 0,6.9371 5.6438,12.5807 12.5806,12.5807 6.9369,-0.0002 12.5807,-5.6435 12.5807,-12.5807 0,-6.9372 -5.6438,-12.5808 -12.5806,-12.5809zm0 27.8469c-8.4177,0 -15.2658,-6.8497 -15.2658,-15.266 0,-8.4199 6.8481,-15.2661 15.2657,-15.2661 8.4177,-0.0001 15.2658,6.8463 15.2658,15.2661 0,8.4162 -6.8481,15.266 -15.2657,15.266z"/>
  </g>
 </g>
 <rect class="fil1" width="173.397" height="173.397"/>
</svg>
