<?xml version="1.0" encoding="UTF-8"?>
<!DOCTYPE svg PUBLIC "-//W3C//DTD SVG 1.1//EN" "http://www.w3.org/Graphics/SVG/1.1/DTD/svg11.dtd">
<!-- Creator: CorelDRAW -->
<svg xmlns="http://www.w3.org/2000/svg" xml:space="preserve" width="1.70666in" height="1.70666in" version="1.1" style="shape-rendering:geometricPrecision; text-rendering:geometricPrecision; image-rendering:optimizeQuality; fill-rule:evenodd; clip-rule:evenodd"
viewBox="0 0 1707 1707"
 xmlns:xlink="http://www.w3.org/1999/xlink">
 <defs>
  <style type="text/css">
   <![CDATA[
    .fil0 {fill:#b7974f}
   ]]>
  </style>
 </defs>
 <g id="Layer_x0020_1">
  <metadata id="CorelCorpID_0Corel-Layer"/>
  <g id="_422623992">
   <g>
    <g>
     <g>
      <path class="fil0" d="M1010 1170c-4,0 -7,-1 -11,-2 -8,-5 -14,-13 -14,-23l4 -101 -27 0c-14,0 -25,-11 -25,-25l0 -458c0,-14 11,-25 25,-25l646 0c14,0 25,11 25,25l0 458c0,14 -11,25 -25,25l-440 0 -141 121c-4,3 -10,5 -17,5zm-23 -174l29 0c7,0 12,2 18,6 4,5 7,12 7,19l-3 70 107 -90c4,-4 9,-5 15,-5l426 0 0 -410 -599 0 0 410z"/>
     </g>
     <g>
      <g>
       <path class="fil0" d="M1421 710l-268 0c-14,0 -25,-11 -25,-25 0,-14 11,-25 25,-25l268 0c14,0 25,11 25,25 0,14 -13,25 -25,25z"/>
      </g>
      <g>
       <path class="fil0" d="M1421 815l-268 0c-14,0 -25,-11 -25,-25 0,-14 11,-25 25,-25l268 0c14,0 25,11 25,25 0,14 -13,25 -25,25z"/>
      </g>
      <g>
       <path class="fil0" d="M1421 921l-268 0c-14,0 -25,-11 -25,-25 0,-14 11,-25 25,-25l268 0c14,0 25,11 25,25 0,14 -13,25 -25,25z"/>
      </g>
     </g>
    </g>
    <g>
     <path class="fil0" d="M1251 1707l-1152 0c-14,0 -25,-11 -25,-25l0 -1658c0,-13 11,-25 25,-25l1152 0c14,0 25,12 25,25l0 537c0,14 -11,25 -25,25 -13,0 -24,-11 -24,-23l0 -514 -1105 0 0 1610 1105 0 0 -638c0,-14 11,-25 24,-25 14,0 25,11 25,25l0 663c-1,12 -11,23 -25,23z"/>
    </g>
    <g>
     <path class="fil0" d="M788 194l-226 0c-14,0 -25,-11 -25,-25 0,-14 11,-25 25,-25l226 0c14,0 25,11 25,25 0,14 -11,25 -25,25z"/>
    </g>
    <g>
     <g>
      <path class="fil0" d="M1251 338l-1152 0c-14,0 -25,-11 -25,-25 0,-14 11,-25 25,-25l1152 0c14,0 25,11 25,25 0,14 -11,25 -25,25z"/>
     </g>
     <g>
      <path class="fil0" d="M1251 1417l-1152 0c-14,0 -25,-11 -25,-25 0,-14 11,-25 25,-25l1152 0c14,0 25,11 25,25 0,14 -11,25 -25,25z"/>
     </g>
    </g>
    <g>
     <path class="fil0" d="M788 1562l-226 0c-14,0 -25,-12 -25,-25 0,-14 11,-25 25,-25l226 0c14,0 25,11 25,25 0,13 -11,25 -25,25z"/>
    </g>
    <g>
     <g>
      <path class="fil0" d="M724 690c-12,0 -23,-9 -23,-23 -4,-78 -57,-145 -132,-164 -14,-3 -22,-17 -18,-29 3,-13 17,-21 29,-17 94,25 162,108 168,208 1,13 -10,24 -24,25 2,0 0,0 0,0zm-405 0c-1,0 -1,0 0,0 -14,0 -25,-12 -23,-25 4,-100 72,-183 166,-208 13,-4 26,4 29,17 3,12 -4,26 -16,29 -77,21 -128,86 -132,164 0,14 -11,23 -24,23z"/>
     </g>
     <g>
      <path class="fil0" d="M561 689c0,0 -2,0 -2,0 -14,-1 -23,-13 -22,-26l15 -206 -61 0 14 206c2,13 -10,25 -22,26 -14,1 -25,-10 -26,-22l-17 -232c0,-7 1,-14 7,-18 5,-4 11,-8 18,-8l112 0c7,0 14,2 18,8 4,6 7,11 7,18l-16 230c-2,14 -13,24 -25,24z"/>
     </g>
     <g>
      <path class="fil0" d="M715 756l-387 0c-32,0 -57,-27 -57,-59 0,-32 26,-57 57,-57l387 0c32,0 58,27 58,57 0,32 -26,59 -58,59zm-387 -67c-5,0 -9,4 -9,8 0,6 4,10 9,10l387 0c5,0 9,-4 9,-10 0,-4 -4,-8 -9,-8l-387 0z"/>
     </g>
     <g>
      <path class="fil0" d="M522 940c-25,0 -49,-4 -72,-14 -81,-30 -134,-109 -131,-195 0,-14 11,-24 25,-24 14,0 24,11 24,25 -3,67 37,126 98,148 18,7 36,11 54,11 42,0 81,-16 110,-47 29,-30 44,-70 43,-112 0,-14 10,-25 24,-25 13,0 25,10 25,24 2,54 -18,108 -57,148 -38,39 -89,61 -143,61z"/>
     </g>
     <g>
      <path class="fil0" d="M860 1417l-677 0c-14,0 -25,-11 -25,-25 0,-15 0,-30 -1,-48 -1,-72 -4,-153 21,-214 37,-89 127,-184 238,-184 4,0 9,1 13,2 75,43 108,43 183,0 4,-1 8,-2 12,-2 113,0 203,95 239,185 24,60 22,139 21,209 0,18 0,36 0,52 0,7 -3,13 -7,18 -4,6 -11,7 -17,7zm-653 -23l0 0 0 0zm0 -25l628 0c0,-10 0,-20 0,-29 2,-66 3,-139 -18,-189 -30,-75 -104,-151 -188,-155 -85,47 -135,47 -220,0 -83,4 -156,79 -188,154 -21,51 -18,127 -17,194 3,8 3,16 3,25z"/>
     </g>
     <g>
      <path class="fil0" d="M351 1417c-14,0 -25,-11 -25,-25l0 -408c0,-13 11,-25 25,-25 14,0 25,12 25,25l0 408c0,14 -11,25 -25,25z"/>
     </g>
     <g>
      <path class="fil0" d="M690 1417c-14,0 -25,-11 -25,-25l0 -408c0,-13 11,-25 25,-25 14,0 25,12 25,25l0 408c0,14 -11,25 -25,25z"/>
     </g>
     <g>
      <path class="fil0" d="M522 1280c-10,0 -20,-6 -22,-15l-113 -283c-5,-13 2,-27 14,-32 13,-6 26,1 32,14l89 226 89 -226c5,-13 19,-18 31,-14 13,5 18,19 14,32l-112 283c-4,8 -13,15 -22,15z"/>
     </g>
     <g>
      <path class="fil0" d="M418 996c-6,0 -13,-3 -17,-7 -10,-10 -11,-25 -1,-35 12,-14 27,-38 26,-50 -3,-14 7,-26 19,-28 14,-3 27,7 28,20 7,40 -30,83 -37,91 -6,6 -11,9 -18,9z"/>
     </g>
     <g>
      <path class="fil0" d="M624 996c-7,0 -13,-3 -18,-9 -7,-8 -43,-50 -37,-91 3,-14 15,-23 28,-20 14,3 22,15 19,28 -1,12 14,37 25,51 8,10 8,25 -1,35 -4,3 -10,6 -16,6z"/>
     </g>
    </g>
   </g>
  </g>
 </g>
</svg>
