<?xml version="1.0" encoding="UTF-8"?>
<!DOCTYPE svg PUBLIC "-//W3C//DTD SVG 1.1//EN" "http://www.w3.org/Graphics/SVG/1.1/DTD/svg11.dtd">
<!-- Creator: CorelDRAW -->
<svg xmlns="http://www.w3.org/2000/svg" xml:space="preserve" width="1.70666in" height="1.70666in" version="1.1" style="shape-rendering:geometricPrecision; text-rendering:geometricPrecision; image-rendering:optimizeQuality; fill-rule:evenodd; clip-rule:evenodd"
viewBox="0 0 1707 1707"
 xmlns:xlink="http://www.w3.org/1999/xlink">
 <defs>
  <style type="text/css">
   <![CDATA[
    .fil0 {fill:#b7974f}
   ]]>
  </style>
 </defs>
 <g id="Layer_x0020_1">
  <metadata id="CorelCorpID_0Corel-Layer"/>
  <g id="_439330424">
   <g>
    <g>
     <path class="fil0" d="M1638 1484l-1571 0c-37,0 -66,-31 -66,-67l0 -1053c0,-37 30,-68 66,-68l1571 0c37,0 68,31 68,68l0 1053c0,36 -31,67 -68,67zm-1571 -1139c-9,0 -18,8 -18,19l0 1053c0,10 9,18 18,18l1571 0c10,0 19,-8 19,-18l0 -1053c0,-11 -9,-19 -19,-19l-1571 0z"/>
    </g>
    <g>
     <path class="fil0" d="M1682 538l-1658 0c-13,0 -25,-11 -25,-25 0,-14 12,-25 25,-25l1658 0c14,0 25,11 25,25 0,14 -12,25 -25,25z"/>
    </g>
    <g>
     <path class="fil0" d="M126 418c-14,0 -25,-11 -25,-25l0 -145c0,-14 11,-25 25,-25 14,0 25,11 25,25l0 147c0,12 -11,23 -25,23z"/>
    </g>
    <g>
     <path class="fil0" d="M270 418c-14,0 -25,-11 -25,-25l0 -145c0,-14 11,-25 25,-25 14,0 25,11 25,25l0 147c0,12 -11,23 -25,23z"/>
    </g>
    <g>
     <path class="fil0" d="M417 418c-14,0 -25,-11 -25,-25l0 -145c0,-14 11,-25 25,-25 14,0 25,11 25,25l0 147c-1,12 -12,23 -25,23z"/>
    </g>
    <g>
     <path class="fil0" d="M563 418c-14,0 -25,-11 -25,-25l0 -145c0,-14 11,-25 25,-25 14,0 25,11 25,25l0 147c-2,12 -13,23 -25,23z"/>
    </g>
    <g>
     <path class="fil0" d="M707 418c-14,0 -25,-11 -25,-25l0 -145c0,-14 11,-25 25,-25 14,0 25,11 25,25l0 147c0,12 -11,23 -25,23z"/>
    </g>
    <g>
     <path class="fil0" d="M853 418c-14,0 -25,-11 -25,-25l0 -145c0,-14 11,-25 25,-25 14,0 25,11 25,25l0 147c0,12 -11,23 -25,23z"/>
    </g>
    <g>
     <path class="fil0" d="M998 418c-14,0 -25,-11 -25,-25l0 -145c0,-14 11,-25 25,-25 14,0 25,11 25,25l0 147c-1,12 -12,23 -25,23z"/>
    </g>
    <g>
     <path class="fil0" d="M1144 418c-14,0 -25,-11 -25,-25l0 -145c0,-14 11,-25 25,-25 14,0 25,11 25,25l0 147c-1,12 -13,23 -25,23z"/>
    </g>
    <g>
     <path class="fil0" d="M1288 418c-14,0 -25,-11 -25,-25l0 -145c0,-14 11,-25 25,-25 14,0 25,11 25,25l0 147c0,12 -11,23 -25,23z"/>
    </g>
    <g>
     <path class="fil0" d="M1434 418c-14,0 -25,-11 -25,-25l0 -145c0,-14 11,-25 25,-25 14,0 25,11 25,25l0 147c0,12 -11,23 -25,23z"/>
    </g>
    <g>
     <path class="fil0" d="M1578 418c-14,0 -25,-11 -25,-25l0 -145c0,-14 11,-25 25,-25 14,0 25,11 25,25l0 147c0,12 -11,23 -25,23z"/>
    </g>
    <g>
     <path class="fil0" d="M719 923c-5,0 -12,-2 -16,-7l-262 -262c0,0 -2,0 -2,0l-261 262c-9,10 -25,10 -34,0 -10,-9 -10,-25 0,-34l262 -262c19,-20 51,-20 71,0l262 262c10,9 10,25 0,34 -7,6 -13,7 -20,7z"/>
    </g>
    <g>
     <path class="fil0" d="M224 1266c-14,0 -25,-11 -25,-25l0 -408c0,-14 11,-25 25,-25 14,0 25,11 25,25l0 408c0,15 -11,25 -25,25zm432 0c-14,0 -24,-11 -25,-24l0 -409c0,-14 11,-25 23,-25 0,0 0,0 0,0 14,0 24,11 25,24l2 408c0,15 -11,26 -25,26 0,0 0,0 0,0z"/>
    </g>
    <g>
     <path class="fil0" d="M535 1266c-14,0 -25,-11 -25,-25l0 -133c0,-39 -32,-69 -69,-69 -38,0 -70,31 -70,69l0 133c0,14 -11,25 -25,25 -14,0 -25,-11 -25,-25l0 -133c0,-65 53,-118 118,-118 65,0 118,53 118,118l0 133c2,15 -10,25 -22,25z"/>
    </g>
    <g>
     <path class="fil0" d="M441 937c-46,0 -84,-37 -84,-83 0,-46 38,-82 84,-82 45,0 83,38 83,82 0,46 -38,83 -83,83zm0 -116c-20,0 -35,15 -35,33 0,19 15,35 35,35 19,0 34,-16 34,-35 0,-18 -16,-33 -34,-33z"/>
    </g>
    <g>
     <path class="fil0" d="M735 1367l-589 0c-13,0 -24,-11 -24,-25l0 -101c0,-14 11,-25 24,-25l589 0c14,0 25,11 25,25l0 101c0,14 -11,25 -25,25zm-564 -48l540 0 0 -53 -540 0 0 53z"/>
    </g>
    <g>
     <path class="fil0" d="M1181 689l-212 0c-14,0 -25,-11 -25,-25 0,-14 11,-25 25,-25l212 0c14,0 24,11 24,25 0,14 -10,25 -24,25z"/>
    </g>
    <g>
     <path class="fil0" d="M1550 689l-212 0c-14,0 -25,-11 -25,-25 0,-14 11,-25 25,-25l212 0c14,0 25,11 25,25 0,14 -11,25 -25,25z"/>
    </g>
    <g>
     <path class="fil0" d="M1181 848l-212 0c-14,0 -25,-11 -25,-24 0,-14 11,-25 25,-25l212 0c14,0 24,11 24,25 0,13 -10,24 -24,24z"/>
    </g>
    <g>
     <path class="fil0" d="M1550 848l-212 0c-14,0 -25,-11 -25,-24 0,-14 11,-25 25,-25l212 0c14,0 25,11 25,25 0,13 -11,24 -25,24z"/>
    </g>
    <g>
     <path class="fil0" d="M1181 1011l-212 0c-14,0 -25,-11 -25,-25 0,-14 11,-25 25,-25l212 0c14,0 24,11 24,25 0,14 -10,25 -24,25z"/>
    </g>
    <g>
     <path class="fil0" d="M1550 1011l-212 0c-14,0 -25,-11 -25,-25 0,-14 11,-25 25,-25l212 0c14,0 25,11 25,25 0,14 -11,25 -25,25z"/>
    </g>
    <g>
     <path class="fil0" d="M1181 1172l-212 0c-14,0 -25,-11 -25,-25 0,-14 11,-25 25,-25l212 0c14,0 24,11 24,25 0,14 -10,25 -24,25z"/>
    </g>
    <g>
     <path class="fil0" d="M1550 1172l-212 0c-14,0 -25,-11 -25,-25 0,-14 11,-25 25,-25l212 0c14,0 25,11 25,25 0,14 -11,25 -25,25z"/>
    </g>
    <g>
     <path class="fil0" d="M1181 1334l-212 0c-14,0 -25,-11 -25,-25 0,-14 11,-25 25,-25l212 0c14,0 24,11 24,25 0,14 -10,25 -24,25z"/>
    </g>
    <g>
     <path class="fil0" d="M1550 1334l-212 0c-14,0 -25,-11 -25,-25 0,-14 11,-25 25,-25l212 0c14,0 25,11 25,25 0,14 -11,25 -25,25z"/>
    </g>
   </g>
  </g>
 </g>
</svg>
