<?xml version="1.0" encoding="UTF-8"?>
<!DOCTYPE svg PUBLIC "-//W3C//DTD SVG 1.1//EN" "http://www.w3.org/Graphics/SVG/1.1/DTD/svg11.dtd">
<!-- Creator: CorelDRAW -->
<svg xmlns="http://www.w3.org/2000/svg" xml:space="preserve" width="173.397mm" height="173.397mm" style="shape-rendering:geometricPrecision; text-rendering:geometricPrecision; image-rendering:optimizeQuality; fill-rule:evenodd; clip-rule:evenodd"
viewBox="0 0 173.397 173.397"
 xmlns:xlink="http://www.w3.org/1999/xlink">
 <defs>
  <style type="text/css">
   <![CDATA[
    .fil1 {fill:none}
    .fil0 {fill:#b7974f}
   ]]>
  </style>
 </defs>
 <g id="Layer_x0020_1">
  <metadata id="CorelCorpID_0Corel-Layer"/>
  <g id="_227130624">
   <path id="_227131008" class="fil0" d="M86.6987 25.3792c0.2703,0 0.5402,0.0804 0.772,0.2413l69.0607 48.5334 3.3875 -3.9932 -73.2202 -51.4567 -73.2205 51.4567 3.3877 3.9932 69.0608 -48.5335c0.2314,-0.1609 0.5017,-0.2411 0.772,-0.2412zm70.0628 51.9217c-0.2675,0 -0.5371,-0.0803 -0.7714,-0.2447l-69.2914 -48.6945 -69.2916 48.6944c-0.5679,0.3986 -1.3469,0.3009 -1.7959,-0.2306l-5.1323 -6.0493c-0.206,-0.242 -0.3177,-0.5486 -0.3188,-0.8633 -0.0002,-0.0581 0.0034,-0.1167 0.0109,-0.1752 0.0479,-0.3742 0.251,-0.7098 0.5597,-0.9266l75.196 -52.845c0.4632,-0.3252 1.0803,-0.3251 1.544,0.0002l75.196 52.8447c0.3087,0.2168 0.5118,0.5526 0.5597,0.9267 0.048,0.3741 -0.064,0.7518 -0.3081,1.0386l-5.1323 6.0492c-0.264,0.3111 -0.6424,0.4755 -1.0245,0.4754z"/>
   <path id="_227131200" class="fil0" d="M32.3917 157.675l-5.9333 0c-0.7415,0 -1.3426,-0.6012 -1.3426,-1.3426l-0.0087 -87.273c-0.0002,-0.7414 0.601,-1.3426 1.3425,-1.3426 0.7415,-0.0002 1.3428,0.6013 1.3428,1.3426l0.0086 85.9302 3.248 0 0 -90.1053c0,-0.7411 0.6012,-1.3425 1.3427,-1.3425 0.7415,0 1.3427,0.6014 1.3427,1.3427l0 91.4479c0,0.7414 -0.6012,1.3427 -1.3427,1.3426zm114.556 0l-5.9327 0c-0.7416,0 -1.3428,-0.6012 -1.3428,-1.3426l0 -91.4621c0,-0.7446 0.6011,-1.3425 1.3427,-1.3425 0.7414,0 1.3423,0.5979 1.3423,1.3427l0.0001 90.1191 3.2477 0 0 -85.9302c0,-0.7414 0.6014,-1.3426 1.3427,-1.3426 0.7417,-0.0002 1.3427,0.6013 1.3427,1.3426l0 87.273c0,0.7414 -0.601,1.3427 -1.3427,1.3426z"/>
   <path id="_227131488" class="fil0" d="M86.6987 42.7715c-4.5443,0 -8.2413,3.6995 -8.2413,8.2417 0,4.5455 3.697,8.2416 8.2413,8.2416 4.5442,-0.0002 8.2409,-3.696 8.2409,-8.2416 0,-4.5422 -3.6967,-8.2417 -8.2409,-8.2417zm0 19.1685c-6.0251,0 -10.9263,-4.9022 -10.9263,-10.9268 0,-6.0248 4.9012,-10.9271 10.9263,-10.9271 6.0248,-0.0002 10.9263,4.9023 10.9263,10.9271 0,6.0246 -4.9016,10.927 -10.9263,10.9268z"/>
   <path id="_227130984" class="fil0" d="M141.015 73.9511l-108.632 0c-0.7415,0 -1.3427,-0.6014 -1.3427,-1.3427 0,-0.7413 0.6012,-1.3426 1.3427,-1.3426l108.632 -0.0001c0.7413,0 1.3422,0.6014 1.3422,1.3427 0.0001,0.7412 -0.601,1.3428 -1.3422,1.3427z"/>
   <path id="_227131392" class="fil0" d="M141.015 82.8431l-108.632 0c-0.7415,0 -1.3427,-0.5978 -1.3427,-1.3426 0,-0.7413 0.6012,-1.3428 1.3427,-1.3428l108.632 0c0.7413,0 1.3422,0.6015 1.3422,1.3428 0.0001,0.7447 -0.601,1.3427 -1.3422,1.3426z"/>
   <path id="_227131176" class="fil0" d="M141.015 91.7387l-108.632 0c-0.7415,0 -1.3427,-0.6015 -1.3427,-1.3427 0,-0.7415 0.6012,-1.3427 1.3427,-1.3427l108.632 -0.0002c0.7413,0 1.3422,0.6016 1.3422,1.3429 0.0001,0.7412 -0.601,1.3427 -1.3422,1.3427z"/>
   <path id="_227131128" class="fil0" d="M54.7977 122.366c-1.0451,0 -1.8956,0.8499 -1.8956,1.8953l0 15.5426c0,1.0454 0.8505,1.8952 1.8956,1.8952l63.8034 0c1.0451,0 1.8951,-0.8497 1.8951,-1.8952l0.0001 -15.5427c0,-1.0455 -0.8501,-1.8951 -1.8952,-1.8951l-63.8034 -0.0001zm63.8034 22.0185l-63.8034 0c-2.526,0 -4.5807,-2.056 -4.5807,-4.5806l0 -15.5427c0,-2.5246 2.0546,-4.5805 4.5807,-4.5805l63.8034 -0.0001c2.526,0 4.5806,2.0561 4.5806,4.5807l0 15.5426c0,2.5244 -2.0547,4.5806 -4.5806,4.5806z"/>
   <path id="_227130096" class="fil0" d="M117.168 122.366c-0.5874,0 -1.127,-0.388 -1.2927,-0.9824l-4.2485 -15.2246c-0.4874,-1.7448 -2.034,-2.9195 -3.8481,-2.9195l-42.1591 -0.0001c-1.842,0 -3.3526,1.147 -3.8477,2.9198l-4.2484 15.2244c-0.1993,0.7131 -0.9403,1.1329 -1.6543,0.9336 -0.7143,-0.1994 -1.1319,-0.9407 -0.9326,-1.6539l4.2488 -15.2245c0.8154,-2.9232 3.4012,-4.8848 6.4342,-4.8848l42.1591 -0.0001c3.0337,0 5.6195,1.9618 6.4346,4.8849l4.2484 15.2243c0.1994,0.7133 -0.2182,1.4548 -0.9322,1.6541 -0.1206,0.0313 -0.242,0.0489 -0.3615,0.0488z"/>
   <path id="_227130720" class="fil0" d="M62.9022 129.037c-1.6508,0 -2.9938,1.3429 -2.9938,2.9933 0,1.6503 1.343,2.9966 2.9938,2.9966 1.6511,0 2.9942,-1.3462 2.9942,-2.9966 0,-1.6505 -1.3431,-2.9931 -2.9942,-2.9933zm0 8.6753c-3.1316,0 -5.6792,-2.549 -5.6792,-5.682 0,-3.1296 2.5476,-5.6786 5.6792,-5.6786 3.1316,-0.0001 5.6797,2.549 5.6797,5.6786 0,3.1329 -2.5481,5.682 -5.6797,5.682z"/>
   <path id="_227130672" class="fil0" d="M108.606 129.037c-1.6508,0 -2.9943,1.3429 -2.9943,2.9933 0.0001,1.6503 1.3435,2.9966 2.9943,2.9966 1.6508,0 2.9938,-1.3462 2.9938,-2.9966 0,-1.6505 -1.3431,-2.9931 -2.9938,-2.9933zm0 8.6753c-3.1316,0 -5.6793,-2.549 -5.6793,-5.682 0,-3.1296 2.5477,-5.6786 5.6793,-5.6786 3.1316,-0.0001 5.6792,2.549 5.6792,5.6786 0,3.1329 -2.5477,5.682 -5.6792,5.682z"/>
   <path id="_227130504" class="fil0" d="M93.7609 131.247l-14.1227 0c-0.7416,0 -1.3427,-0.6014 -1.3427,-1.3427 0,-0.745 0.6011,-1.3426 1.3427,-1.3426l14.1227 0c0.7412,0 1.3427,0.5978 1.3427,1.3426 0,0.7412 -0.6015,1.3428 -1.3427,1.3427z"/>
   <path id="_227130072" class="fil0" d="M93.7609 137.139l-14.1227 0c-0.7416,0 -1.3427,-0.6012 -1.3427,-1.3425 0,-0.7413 0.6011,-1.3427 1.3427,-1.3427l14.1227 -0.0001c0.7412,0 1.3427,0.6016 1.3427,1.3428 0,0.7413 -0.6015,1.3427 -1.3427,1.3425z"/>
   <path id="_227130552" class="fil0" d="M64.8872 153.409l-5.7911 0c-2.219,0 -4.0243,-1.8044 -4.0243,-4.0247l0 -6.3431c0,-0.7413 0.6011,-1.3426 1.3427,-1.3426 0.7414,0 1.3427,0.6015 1.3427,1.3428l0 6.3427c0,0.7414 0.6004,1.3394 1.3389,1.3394l5.7911 -0.0001c0.7386,0 1.3393,-0.5979 1.3393,-1.3391l0 -6.3431c0,-0.7413 0.6011,-1.3426 1.3427,-1.3426 0.7413,0 1.3423,0.6015 1.3423,1.3428l0.0001 6.3427c0,2.2204 -1.8054,4.0249 -4.0244,4.0249z"/>
   <path id="_227130480" class="fil0" d="M114.302 153.409l-5.7913 0c-2.2189,0 -4.024,-1.8044 -4.024,-4.0247l0.0001 -6.3431c0,-0.7413 0.6011,-1.3426 1.3427,-1.3426 0.7413,0 1.3423,0.6015 1.3423,1.3428l0 6.3427c0,0.7414 0.6008,1.3394 1.3389,1.3394l5.7913 -0.0001c0.7384,0 1.3392,-0.5979 1.3392,-1.3391l0 -6.3431c0,-0.7413 0.601,-1.3426 1.3426,-1.3426 0.7417,0 1.3428,0.6015 1.3428,1.3428l0 6.3427c0,2.2204 -1.8054,4.0249 -4.0246,4.0249z"/>
   <path id="_227130768" class="fil0" d="M125.055 122.366l-7.8857 0c-0.7416,0 -1.3428,-0.6012 -1.3428,-1.3426 0.0001,-0.7413 0.6012,-1.3427 1.3428,-1.3427l6.5429 -0.0001 0 -2.6609c0,-1.4687 -1.1942,-2.6645 -2.662,-2.6645l-6.1162 -0.0001c-0.7413,0 -1.3429,-0.6012 -1.3429,-1.3425 0,-0.7413 0.6015,-1.3428 1.3428,-1.3428l6.1163 0c2.9485,0 5.3474,2.3988 5.3474,5.35l0.0001 4.0036c0,0.7414 -0.6011,1.3427 -1.3427,1.3426z"/>
   <path id="_227130192" class="fil0" d="M56.2285 122.373l-7.8857 0c-0.7416,0 -1.3426,-0.6014 -1.3426,-1.3427l0 -4.0072c0,-2.9478 2.3986,-5.3463 5.347,-5.3463l6.1163 0c0.7417,0 1.3428,0.6014 1.3428,1.3427 0,0.7411 -0.6011,1.3427 -1.3428,1.3427l-6.1162 0c-1.4677,0 -2.6617,1.1959 -2.6617,2.661l0 2.6643 6.5429 0c0.7416,0 1.3427,0.6016 1.3427,1.3428 0.0001,0.7412 -0.6011,1.3428 -1.3427,1.3427z"/>
  </g>
 </g>
 <rect class="fil1" width="173.397" height="173.397"/>
</svg>
