<?xml version="1.0" encoding="UTF-8"?>
<!DOCTYPE svg PUBLIC "-//W3C//DTD SVG 1.1//EN" "http://www.w3.org/Graphics/SVG/1.1/DTD/svg11.dtd">
<!-- Creator: CorelDRAW -->
<svg xmlns="http://www.w3.org/2000/svg" xml:space="preserve" width="173.397mm" height="173.397mm" style="shape-rendering:geometricPrecision; text-rendering:geometricPrecision; image-rendering:optimizeQuality; fill-rule:evenodd; clip-rule:evenodd"
viewBox="0 0 173.397 173.397"
 xmlns:xlink="http://www.w3.org/1999/xlink">
 <defs>
  <style type="text/css">
   <![CDATA[
    .fil1 {fill:none}
    .fil0 {fill:#b7974f;fill-rule:nonzero}
   ]]>
  </style>
 </defs>
 <g id="Layer_x0020_1">
  <metadata id="CorelCorpID_0Corel-Layer"/>
  <g id="_280036704">
   <path id="_280037520" class="fil0" d="M150.001 161.901l-126.605 0c-0.7414,0 -1.3427,-0.5979 -1.3427,-1.3391l0 -84.4053c0,-0.7411 0.6013,-1.3418 1.3427,-1.3418 0.7415,0 1.3429,0.6007 1.3429,1.3418l0 83.0635 123.92 0 0 -83.0635c0,-0.7411 0.6014,-1.3418 1.3425,-1.3418 0.7412,0 1.3433,0.6007 1.3433,1.3418l0 84.4053c0,0.7412 -0.6021,1.3391 -1.3433,1.3391z"/>
   <path id="_280037472" class="fil0" d="M80.4634 161.906c-0.7414,0 -1.3426,-0.6021 -1.3426,-1.3433l0 -56.9835 -36.4816 0 0 56.9835c0,0.7412 -0.6006,1.3433 -1.3426,1.3433 -0.7415,0 -1.3423,-0.6021 -1.3423,-1.3433l0 -58.3268c0,-0.7411 0.6008,-1.3433 1.3423,-1.3433l39.1668 0c0.7415,0 1.3427,0.6022 1.3427,1.3433l0 58.3268c0,0.7412 -0.6012,1.3433 -1.3427,1.3433z"/>
   <path id="_280037736" class="fil0" d="M72.3988 136.934c-0.742,0 -1.3428,-0.6021 -1.3428,-1.3433l0 -8.3864c0,-0.7397 0.6008,-1.3419 1.3428,-1.3419 0.7414,0 1.3427,0.6022 1.3427,1.3419l0 8.3864c0,0.7412 -0.6013,1.3433 -1.3427,1.3433z"/>
   <path id="_280037952" class="fil0" d="M99.8531 134.329l30.7523 0 0 -30.7521 -30.7523 0 0 30.7521zm32.0951 2.6851l-33.4375 0c-0.7414,0 -1.3427,-0.6006 -1.3427,-1.3418l0 -33.4373c0,-0.7411 0.6013,-1.3433 1.3427,-1.3433l33.4375 0c0.7414,0 1.3427,0.6022 1.3427,1.3433l0 33.4373c0,0.7412 -0.6013,1.3418 -1.3427,1.3418z"/>
   <path id="_280037352" class="fil0" d="M115.23 137.016c-0.742,0 -1.3426,-0.602 -1.3426,-1.3432l0 -33.4373c0,-0.7411 0.6006,-1.3433 1.3426,-1.3433 0.7415,0 1.3428,0.6022 1.3428,1.3433l0 33.4373c0,0.7412 -0.6013,1.3432 -1.3428,1.3432z"/>
   <path id="_280036968" class="fil0" d="M131.948 120.296l-33.4375 0c-0.7414,0 -1.3427,-0.6007 -1.3427,-1.3419 0,-0.7411 0.6013,-1.3432 1.3427,-1.3432l33.4375 0c0.7414,0 1.3427,0.6021 1.3427,1.3432 0,0.7412 -0.6013,1.3419 -1.3427,1.3419z"/>
   <path id="_280036944" class="fil0" d="M15.1818 74.8151l143.033 0 -71.5165 -60.225 -71.5169 60.225zm146.713 2.6852l-150.392 0c-0.5638,0 -1.0679,-0.3533 -1.2613,-0.8831 -0.0544,-0.149 -0.081,-0.3031 -0.0814,-0.4556 -0.0013,-0.39 0.1676,-0.7701 0.478,-1.0309l75.1953 -63.323c0.5002,-0.4214 1.2303,-0.4214 1.7301,0l75.196 63.323c0.4311,0.3629 0.5896,0.9567 0.3964,1.4865 -0.1933,0.5298 -0.6981,0.8831 -1.2613,0.8831z"/>
  </g>
 </g>
 <rect class="fil1" width="173.397" height="173.397"/>
</svg>
