<?xml version="1.0" encoding="UTF-8"?>
<!DOCTYPE svg PUBLIC "-//W3C//DTD SVG 1.1//EN" "http://www.w3.org/Graphics/SVG/1.1/DTD/svg11.dtd">
<!-- Creator: CorelDRAW -->
<svg xmlns="http://www.w3.org/2000/svg" xml:space="preserve" width="6.82666in" height="6.82666in" style="shape-rendering:geometricPrecision; text-rendering:geometricPrecision; image-rendering:optimizeQuality; fill-rule:evenodd; clip-rule:evenodd"
viewBox="0 0 6.82666 6.82666"
 xmlns:xlink="http://www.w3.org/1999/xlink">
 <defs>
  <style type="text/css">
   <![CDATA[
    .fil1 {fill:none}
    .fil0 {fill:#ffffff}
   ]]>
  </style>
 </defs>
 <g id="Layer_x0020_1">
  <metadata id="CorelCorpID_0Corel-Layer"/>
  <g id="_310053000">
   <g>
    <g>
     <path id="_310053552" class="fil0" d="M2.68132 4.50958c-0.488335,0 -0.947362,-0.190138 -1.29278,-0.535417 -0.345276,-0.345276 -0.535417,-0.804441 -0.535417,-1.29277 0,-0.488335 0.190138,-0.947362 0.535417,-1.29278l0 0c0.345276,-0.345276 0.804445,-0.535417 1.29278,-0.535417 0.488335,0 0.947358,0.190138 1.29277,0.535417 0.345276,0.345276 0.535417,0.804445 0.535417,1.29278 0,0.488335 -0.190138,0.947358 -0.535417,1.29277 -0.345417,0.345276 -0.804441,0.535417 -1.29277,0.535417zm-1.21736 -3.04555c-0.325138,0.325138 -0.504165,0.7575 -0.504165,1.21736 0,0.459858 0.179028,0.892079 0.504165,1.21735 0.325138,0.325276 0.7575,0.504165 1.21736,0.504165 0.459858,0 0.892079,-0.179028 1.21735,-0.504165 0.325276,-0.325138 0.504165,-0.757496 0.504165,-1.21735 0,-0.459858 -0.179028,-0.892083 -0.504165,-1.21736 -0.325138,-0.325276 -0.757496,-0.504165 -1.21735,-0.504165 -0.459858,0 -0.89222,0.179165 -1.21736,0.504165l0 0z"/>
    </g>
    <g>
     <path id="_310053744" class="fil0" d="M2.68132 4.16833c-0.39722,0 -0.770555,-0.15472 -1.05153,-0.435555 -0.280835,-0.280831 -0.435555,-0.654161 -0.435555,-1.05138 0,-0.39722 0.15472,-0.770555 0.435555,-1.05153l0 0c0,0 0,0 0,0 0.280831,-0.280835 0.654303,-0.435555 1.05153,-0.435555 0.39722,0 0.770551,0.15472 1.05152,0.435555 0.280835,0.280835 0.435555,0.654303 0.435555,1.05153 0,0.39722 -0.15472,0.770551 -0.435555,1.05152 -0.280972,0.280831 -0.654303,0.435413 -1.05152,0.435413zm0 -2.86735c-0.368748,0 -0.715276,0.14361 -0.97611,0.404307l0 0c-0.260693,0.260693 -0.404307,0.607362 -0.404307,0.97611 0,0.368748 0.14361,0.715272 0.404307,0.976106 0.260693,0.260693 0.607362,0.404307 0.97611,0.404307 0.368748,0 0.715272,-0.14361 0.976106,-0.404307 0.260835,-0.260697 0.404307,-0.607358 0.404307,-0.976106 0,-0.368748 -0.14361,-0.715276 -0.404307,-0.97611 -0.260835,-0.260697 -0.607358,-0.404307 -0.976106,-0.404307zm-1.01375 0.366665l0 0 0 0z"/>
    </g>
    <g>
     <path id="_310053624" class="fil0" d="M3.84284 2.62194c-0.0270827,0 -0.0504173,-0.0206929 -0.0530551,-0.0481929 -0.0631929,-0.654862 -0.623051,-1.00722 -1.11902,-1.00722 -0.00111024,0 -0.00222047,0 -0.00333465,0 -0.0294449,0 -0.0531929,-0.023748 -0.0533346,-0.0531929 -0.000137795,-0.0294449 0.023748,-0.0534724 0.0531929,-0.0534724 0.00124803,0 0.0025,0 0.00374803,0 0.295276,0 0.582083,0.105972 0.807913,0.29861 0.238472,0.203472 0.386665,0.489307 0.417083,0.805 0.00277953,0.0293071 -0.0186102,0.0554173 -0.0479173,0.0581929 -0.00179921,0.000275591 -0.00346457,0.000275591 -0.00527165,0.000275591z"/>
    </g>
    <g>
     <path id="_310053456" class="fil0" d="M3.84409 4.50152c-0.0525,0 -0.105138,-0.02 -0.145138,-0.06l-0.178748 -0.178748c-0.0208346,-0.0208346 -0.0208346,-0.0545827 0,-0.0754173 0.0208346,-0.0208346 0.0545827,-0.0208346 0.0754173,0l0.178748 0.178748c0.0384724,0.0384724 0.100972,0.0384724 0.139445,0l0.45222 -0.45222c0.0384724,-0.0384724 0.0384724,-0.100972 0,-0.139445l-0.178752 -0.178748c-0.0208346,-0.0208346 -0.0208346,-0.0545827 0,-0.0754173 0.0208346,-0.0208346 0.0545827,-0.0208346 0.0754173,0l0.178748 0.178748c0.08,0.08 0.08,0.21028 0,0.29028l-0.45222 0.45222c-0.0401378,0.0398622 -0.0926378,0.06 -0.145138,0.06z"/>
    </g>
    <g>
     <path id="_310053432" class="fil0" d="M4.45326 4.50666c-0.0136102,0 -0.0273622,-0.00527953 -0.0376378,-0.0155551l-0.275693 -0.275693c-0.0208346,-0.0208346 -0.0208346,-0.0545827 0,-0.0754173 0.0208346,-0.0208346 0.0545827,-0.0208346 0.0754173,0l0.275693 0.275693c0.0208346,0.0208346 0.0208346,0.0545827 0,0.0754173 -0.0104173,0.0104134 -0.0241693,0.0155551 -0.0377795,0.0155551z"/>
    </g>
    <g>
     <path id="_310053768" class="fil0" d="M5.57909 5.97346c-0.100972,0 -0.202083,-0.0384724 -0.27889,-0.115417l-1.02236 -1.02236c-0.0777795,-0.0777795 -0.0777795,-0.204307 0,-0.28222 0,0 0,0 0,0l0.275693 -0.275693c0.0777795,-0.0777795 0.204445,-0.0777795 0.28222,0l1.02236 1.02236c0.15389,0.153748 0.15389,0.404028 0,0.557917 -0.0770827,0.0769409 -0.178055,0.115413 -0.279024,0.115413zm-1.22597 -1.34458c-0.036248,0.036248 -0.036248,0.0951378 0,0.13139l1.02236 1.02236c0.11222,0.11222 0.294862,0.11222 0.407083,0 0.11222,-0.11222 0.11222,-0.294862 0,-0.407083l-1.02236 -1.02236c-0.036248,-0.036248 -0.0951378,-0.036248 -0.13139,0l-0.275693 0.275693z"/>
    </g>
    <g>
     <path id="_310053288" class="fil0" d="M5.1927 5.72846c-0.00416535,0 -0.00847244,-0.000555118 -0.0126378,-0.00152756 -0.0286102,-0.00694488 -0.0461102,-0.0358346 -0.0391654,-0.0644449 0.0308346,-0.12611 0.0958346,-0.24139 0.187917,-0.33361 0.0922205,-0.0922205 0.207638,-0.15722 0.33361,-0.188055 0.0286102,-0.00694488 0.0575,0.0105551 0.0644449,0.0391654 0.00694488,0.0286102 -0.0105551,0.0575 -0.0391654,0.0644449 -0.107083,0.0261102 -0.205138,0.0813898 -0.283472,0.15972 -0.0783346,0.0783346 -0.13361,0.17639 -0.15972,0.283472 -0.00597638,0.0245866 -0.0277835,0.0408346 -0.051811,0.0408346z"/>
    </g>
    <g>
     <path id="_310053264" class="fil0" d="M4.78062 5.31652c-0.0136102,0 -0.0273622,-0.00527953 -0.0376378,-0.0155551 -0.0208346,-0.0208346 -0.0208346,-0.0545827 0,-0.0754173l0.4825 -0.4825c0.0208346,-0.0208346 0.0545827,-0.0208346 0.0754173,0 0.0208346,0.0208346 0.0208346,0.0545827 0,0.0754173l-0.4825 0.4825c-0.0104213,0.0102795 -0.0240315,0.0155551 -0.0377795,0.0155551zm-0.361807 -0.361803c-0.0136102,0 -0.0273622,-0.00527953 -0.0376378,-0.0155551 -0.0208346,-0.0208346 -0.0208346,-0.0545827 0,-0.0754173l0.4825 -0.4825c0.0208346,-0.0208346 0.0545827,-0.0208346 0.0754173,0 0.0208346,0.0208346 0.0208346,0.0545827 0,0.0754173l-0.4825 0.4825c-0.0105551,0.0102756 -0.0241693,0.0155551 -0.0377795,0.0155551z"/>
    </g>
   </g>
  </g>
 </g>
 <rect class="fil1" width="6.82666" height="6.82666"/>
</svg>
