<?xml version="1.0" encoding="UTF-8"?>
<!DOCTYPE svg PUBLIC "-//W3C//DTD SVG 1.1//EN" "http://www.w3.org/Graphics/SVG/1.1/DTD/svg11.dtd">
<!-- Creator: CorelDRAW -->
<svg xmlns="http://www.w3.org/2000/svg" xml:space="preserve" width="1.70666in" height="1.70666in" version="1.1" style="shape-rendering:geometricPrecision; text-rendering:geometricPrecision; image-rendering:optimizeQuality; fill-rule:evenodd; clip-rule:evenodd"
viewBox="0 0 1707 1707"
 xmlns:xlink="http://www.w3.org/1999/xlink">
 <defs>
  <style type="text/css">
   <![CDATA[
    .fil0 {fill:#b7974f}
   ]]>
  </style>
 </defs>
 <g id="Layer_x0020_1">
  <metadata id="CorelCorpID_0Corel-Layer"/>
  <g id="_616061592">
   <g>
    <g>
     <path class="fil0" d="M1481 1133c-5,0 -12,-2 -17,-7l-93 -93c-9,-9 -9,-25 0,-34 25,-25 25,-64 0,-89 -23,-24 -63,-24 -88,0 -10,10 -25,10 -35,0l-466 -465c-10,-10 -10,-25 0,-34l15 -16c-11,-32 -46,-115 -123,-151 -64,-30 -146,-21 -240,25 -11,6 -24,3 -31,-7 -7,-10 -5,-22 2,-30 102,-110 210,-163 319,-154 126,8 215,95 252,138l7 -7c4,-4 11,-7 17,-7 0,0 0,0 0,0 7,0 12,3 16,7l466 466c5,5 7,12 7,17 0,6 -2,13 -7,17 -12,12 -18,28 -18,44 0,17 7,32 18,45 25,25 64,25 89,0 10,-10 25,-10 35,0l93 91c4,4 7,11 7,17 0,5 -3,12 -7,16l-203 203c-4,6 -9,8 -15,8zm-61 -119l61 61 168 -168 -60 -59c-43,27 -101,22 -138,-16 -38,-37 -43,-95 -16,-138l-434 -435 -8 10c-6,6 -13,8 -20,7 -7,0 -14,-4 -18,-10 -1,-1 -94,-130 -234,-140 -63,-4 -125,15 -189,60 60,-11 115,-6 162,16 118,55 152,190 153,196 1,8 0,17 -7,24l-8 8 435 430c43,-26 100,-21 138,15 37,38 43,96 15,139z"/>
    </g>
    <g>
     <path class="fil0" d="M144 1630c0,0 0,0 0,0 -39,0 -75,-15 -102,-43 -26,-26 -41,-62 -41,-100 0,-39 15,-75 41,-103l856 -857c10,-10 25,-10 35,0 10,10 10,25 0,35l-856 857c-18,18 -28,43 -28,68 0,25 10,49 28,67 18,18 42,27 67,27 0,0 0,0 0,0 25,0 50,-9 68,-27l856 -856c9,-10 25,-10 34,0 10,9 10,25 0,34l-856 856c-27,27 -63,42 -102,42z"/>
    </g>
    <g>
     <path class="fil0" d="M896 927c-6,0 -13,-3 -17,-7l-169 -170c-10,-9 -10,-25 0,-34 9,-10 25,-10 34,0l170 169c9,10 9,25 0,35 -6,5 -11,7 -18,7z"/>
    </g>
    <g>
     <path class="fil0" d="M332 1490c-5,0 -12,-3 -16,-7l-170 -169c-9,-10 -9,-25 0,-35 10,-10 25,-10 35,0l169 169c10,10 10,25 0,35 -5,4 -11,7 -18,7z"/>
    </g>
    <g>
     <path class="fil0" d="M249 1405c-5,0 -12,-3 -16,-7 -10,-9 -10,-25 0,-34l561 -564c10,-9 25,-9 35,0 10,10 10,25 0,35l-562 563c-5,4 -12,7 -18,7z"/>
    </g>
   </g>
  </g>
 </g>
</svg>
