<?xml version="1.0" encoding="UTF-8"?>
<!DOCTYPE svg PUBLIC "-//W3C//DTD SVG 1.1//EN" "http://www.w3.org/Graphics/SVG/1.1/DTD/svg11.dtd">
<!-- Creator: CorelDRAW -->
<svg xmlns="http://www.w3.org/2000/svg" xml:space="preserve" width="2048px" height="2048px" style="shape-rendering:geometricPrecision; text-rendering:geometricPrecision; image-rendering:optimizeQuality; fill-rule:evenodd; clip-rule:evenodd"
viewBox="0 0 2048 2048"
 xmlns:xlink="http://www.w3.org/1999/xlink">
 <defs>
  <style type="text/css">
   <![CDATA[
    .fil1 {fill:none}
    .fil0 {fill:#b7974f}
   ]]>
  </style>
 </defs>
 <g id="Layer_x0020_1">
  <metadata id="CorelCorpID_0Corel-Layer"/>
  <g id="_293708592">
   <path id="_293711016" class="fil0" d="M163.122 718.531l1721.75 0 -242.476 -426.304 -1236.8 0 -242.479 426.304zm1749.02 31.715l-1776.28 0c-5.64922,0 -10.8709,-2.99764 -13.7091,-7.87914 -2.83937,-4.88859 -2.8689,-10.9075 -0.0767717,-15.8138l260.521 -458.02c2.81811,-4.95355 8.08111,-8.01497 13.7847,-8.01497l1255.24 -0.00590552c5.70355,0 10.9689,3.06851 13.7847,8.02442l260.519 458.014c2.79331,4.9063 2.76378,10.9335 -0.0732284,15.8162 -2.84173,4.87796 -8.06221,7.88386 -13.7114,7.87914z"/>
   <path id="_293711352" class="fil0" d="M1912.14 1787.49l-1776.28 0c-8.75788,0 -15.8587,-7.10316 -15.8587,-15.8587l0 -1037.25c0,-8.75316 7.10079,-15.8516 15.8587,-15.8516 8.75788,-0.0011811 15.8575,7.10434 15.8575,15.8599l0 1021.38 1744.57 0 0 -1021.38c0,-8.75316 7.09843,-15.8516 15.8528,-15.8516 8.76024,-0.0011811 15.8599,7.10434 15.8599,15.8599l0 1037.24c0,8.75316 -7.09961,15.8622 -15.8587,15.8622z"/>
   <path id="_293710728" class="fil0" d="M1267.93 1787.49c-8.75906,0 -15.8587,-7.10316 -15.8587,-15.8587l0 -692.086 -456.149 0 0 692.083c0,8.75316 -7.09961,15.8622 -15.8587,15.8622 -8.75552,0 -15.8599,-7.10316 -15.8599,-15.8587l0 -707.949c0,-8.75316 7.10434,-15.8539 15.8599,-15.8539l487.867 -0.00826772c8.75552,0 15.8551,7.1126 15.8551,15.8681l0 707.939c0,8.75316 -7.09961,15.8622 -15.8551,15.8622z"/>
   <path id="_293710536" class="fil0" d="M890.991 1386.32c-17.2795,0 -31.3382,14.0599 -31.3382,31.3394 0.0011811,17.2784 14.0587,31.3382 31.3382,31.3382 17.2807,0 31.3382,-14.0599 31.3382,-31.3382 0,-17.2795 -14.0587,-31.3394 -31.3382,-31.3394zm0 94.3914c-34.7646,0 -63.0556,-28.2827 -63.0556,-63.052 0,-34.7681 28.2898,-63.052 63.0556,-63.052 34.7705,-0.0011811 63.0556,28.2851 63.0556,63.052 0.0011811,34.767 -28.2851,63.0544 -63.0556,63.052z"/>
   <path id="_293710464" class="fil0" d="M389.606 750.246c-1.9878,0 -4.00866,-0.367323 -5.96221,-1.16102 -8.11536,-3.29882 -12.0213,-12.5457 -8.72481,-20.661l186.088 -458.025c3.29646,-8.11064 12.5433,-12.0071 20.6634,-8.71418 8.10946,3.28701 12.0177,12.5469 8.72127,20.661l-186.086 458.013c-2.50158,6.16063 -8.43544,9.89528 -14.6988,9.88702z"/>
   <path id="_293710512" class="fil0" d="M643.379 750.246c-1.23898,0 -2.50276,-0.140551 -3.76772,-0.445276 -8.50749,-2.08229 -13.7232,-10.6559 -11.6492,-19.1634l111.652 -458.016c2.07638,-8.51221 10.6417,-13.7339 19.1622,-11.6516 8.50749,2.07047 13.728,10.6547 11.6504,19.1646l-111.647 458.013c-1.77165,7.23898 -8.25591,12.1075 -15.4004,12.0992z"/>
   <path id="_293710176" class="fil0" d="M897.141 750.246c-0.433465,0 -0.868111,-0.011811 -1.30512,-0.0484252 -8.72717,-0.713386 -15.2315,-8.35985 -14.5205,-17.0906l37.2189 -458.015c0.705119,-8.73426 8.37048,-15.2303 17.0894,-14.5217 8.73072,0.703938 15.2303,8.36221 14.5205,17.0917l-37.2142 458.014c-0.677953,8.28898 -7.61575,14.5784 -15.789,14.5701z"/>
   <path id="_293710248" class="fil0" d="M1150.86 750.246c-8.17678,0 -15.1158,-6.27284 -15.789,-14.5701l-37.2154 -458.019c-0.708662,-8.72481 5.79095,-16.3784 14.5217,-17.087 8.72245,-0.726379 16.3795,5.79331 17.0894,14.5217l37.2154 458.011c0.709843,8.73426 -5.78977,16.389 -14.5217,17.0953 -0.432284,0.0295276 -0.871654,0.056693 -1.30039,0.0484252z"/>
   <path id="_293710440" class="fil0" d="M1404.62 750.246c-7.13977,0 -13.6288,-4.84843 -15.3933,-12.0969l-111.652 -458.02c-2.07284,-8.51221 3.14292,-17.0858 11.6516,-19.1599 8.51457,-2.09291 17.0894,3.14055 19.1622,11.6516l111.653 458.008c2.07166,8.51221 -3.1441,17.0977 -11.6551,19.1717 -1.26024,0.296457 -2.52402,0.453544 -3.76654,0.445276z"/>
   <path id="_293710200" class="fil0" d="M1658.39 750.246c-6.26575,0 -12.1961,-3.7252 -14.6988,-9.88229l-186.086 -458.024c-3.29882,-8.11182 0.607087,-17.3599 8.72245,-20.6551 8.11182,-3.3 17.3658,0.61063 20.6622,8.72245l186.085 458.011c3.29764,8.113 -0.607087,17.3728 -8.72245,20.6669 -1.95236,0.788977 -3.97677,1.16929 -5.96221,1.16102z"/>
   <path id="_293710296" class="fil0" d="M1738.46 444.9l-1428.92 0c-8.75788,0 -15.8587,-7.09371 -15.8587,-15.8516 0,-8.76379 7.10079,-15.8575 15.8587,-15.8575l1428.92 -0.00472441c8.76024,0 15.8587,7.10434 15.8587,15.8622 0.0011811,8.75198 -7.09843,15.8587 -15.8587,15.8516z"/>
   <path id="_293710656" class="fil0" d="M1825.3 597.573l-1602.6 0c-8.75788,0 -15.8587,-7.09253 -15.8587,-15.8528 0,-8.76261 7.10079,-15.8587 15.8587,-15.8587l1602.6 -0.00354331c8.75434,0 15.8539,7.10316 15.8539,15.8622 0,8.75316 -7.09961,15.8599 -15.8539,15.8528z"/>
   <path id="_293710104" class="fil0" d="M539.692 1013.97c-4.29922,10.5473 -9.84095,19.3689 -15.5551,28.4622 -3.25276,5.16733 -6.61418,10.5284 -9.87166,16.4291 -37.0217,67.1091 -39.5433,120.775 -6.74292,143.548 23.85,16.5496 60.7985,10.9902 80.6835,-12.1583 25.3666,-29.5453 24.3343,-90.4985 -48.5138,-176.281zm-0.0661418 229.707c-17.7803,0 -35.3953,-4.94055 -50.1922,-15.215 -17.8016,-12.365 -70.6253,-62.2217 -2.93977,-184.922 3.69213,-6.69213 7.29804,-12.4323 10.7858,-17.9823 9.54804,-15.202 16.448,-26.1792 18.3992,-46.0075 0.607087,-6.17835 4.76575,-11.4354 10.6406,-13.4504 5.87245,-2.02087 12.3815,-0.413386 16.6512,4.09607 134.347,141.799 87.0024,220.101 69.2918,240.722 -18.3768,21.3945 -45.6933,32.7626 -72.6367,32.7591z"/>
   <path id="_293709960" class="fil0" d="M502.802 1374.92c-3.59764,0 -7.21536,-1.21063 -10.187,-3.70512 -6.70985,-5.63386 -7.58268,-15.6354 -1.95236,-22.3477 78.0969,-93.0473 38.589,-238.635 38.1792,-240.097 -2.35512,-8.42835 2.55827,-17.1791 10.9878,-19.5461 8.42009,-2.3752 17.1709,2.53937 19.5473,10.9606 1.8626,6.60473 44.5701,163.05 -44.4189,269.077 -3.13701,3.73583 -7.62993,5.66221 -12.1559,5.65867z"/>
   <path id="_293709288" class="fil0" d="M271.395 1141.13c9.14292,112.168 51.5209,156.008 90.3426,158.953 30.4181,2.27953 60.4926,-19.8768 65.6481,-48.4524 7.09134,-39.3012 -32.6374,-75.4583 -106.27,-96.7347 -6.47481,-1.87914 -12.6378,-3.2752 -18.5977,-4.63347 -10.4717,-2.3941 -20.6268,-4.7126 -31.1233,-9.13229zm94.7552 190.838c-2.26654,0 -4.53307,-0.0850394 -6.8126,-0.257481 -27.1028,-2.06575 -115.943,-23.941 -121.22,-219.209 -0.168898,-6.21615 3.30355,-11.9433 8.88072,-14.6728 5.57245,-2.74134 12.235,-1.95827 17.0351,1.98662 15.4028,12.6402 28.0441,15.5291 45.5433,19.5225 6.39213,1.45276 13.0016,2.96811 20.3433,5.08701 134.622,38.8961 132.528,111.513 128.679,132.84 -7.65237,42.4122 -48.3189,74.706 -92.4485,74.7036z"/>
   <path id="_293709360" class="fil0" d="M502.82 1374.92c-1.35945,0 -2.74134,-0.166536 -4.11614,-0.537402 -115.832,-31.0477 -178.043,-153.853 -180.633,-159.064 -3.89882,-7.84607 -0.702756,-17.3634 7.14095,-21.261 7.84016,-3.90591 17.3492,-0.7063 21.254,7.12441l0 0c0.571654,1.15158 58.6134,115.274 160.449,142.565 8.46024,2.26417 13.4788,10.9642 11.2122,19.4232 -1.89685,7.08426 -8.3067,11.7579 -15.3071,11.7496z"/>
   <path id="_293709312" class="fil0" d="M502.81 1471.28c-8.75788,0 -15.8587,-7.10079 -15.8587,-15.8563l0 -96.3662c0,-8.75316 7.10079,-15.8539 15.8587,-15.8539 8.75788,0 15.8575,7.10552 15.8575,15.861l0 96.3544c0,8.75316 -7.09961,15.8622 -15.8575,15.861z"/>
   <path id="_293709432" class="fil0" d="M587.66 1787.49c-0.379134,0 -0.754725,-0.0165354 -1.13858,-0.046063 -8.73426,-0.622441 -15.3189,-8.20512 -14.6941,-16.9406l18.1547 -255.706c0.618898,-8.73426 8.18977,-15.3272 16.9406,-14.687 8.73544,0.609449 15.3142,8.20158 14.6953,16.9406l-18.1559 255.692c-0.594095,8.35394 -7.55434,14.7473 -15.802,14.7473zm-169.703 0c-8.24764,0 -15.2091,-6.38032 -15.802,-14.7354l-18.1878 -255.709c-0.622441,-8.74371 5.95748,-16.3252 14.6929,-16.9441 8.73662,-0.655512 16.3217,5.95512 16.9441,14.6941l18.1866 255.708c0.622441,8.73544 -5.9563,16.3228 -14.6929,16.9406 -0.382677,0.0271654 -0.764174,0.046063 -1.14095,0.046063z"/>
   <path id="_293709480" class="fil0" d="M404.781 1471.28c-8.04804,0 -14.5984,6.54804 -14.5984,14.5973 0,8.03977 6.5504,14.5949 14.5984,14.5949l196.055 -0.00472441c8.0504,0 14.5949,-6.54095 14.5949,-14.5902 0,-8.04568 -6.54449,-14.5961 -14.5949,-14.5961l-196.055 -0.0011811zm196.055 60.9012l-196.055 0c-25.5378,0 -46.3146,-20.765 -46.3146,-46.304 0,-25.5437 20.7768,-46.3134 46.3146,-46.3134l196.055 -0.00826772c25.5402,0 46.3134,20.7815 46.3134,46.3217 0,25.5272 -20.7732,46.3122 -46.3134,46.304z"/>
   <path id="_293709648" class="fil0" d="M1702.43 1013.97c-4.29449,10.5473 -9.84095,19.3736 -15.5528,28.467 -3.25512,5.17087 -6.61772,10.5272 -9.87166,16.4244 -37.0193,67.1091 -39.5433,120.775 -6.7441,143.548 23.8477,16.5496 60.7973,10.9902 80.6823,-12.1583 25.3677,-29.5453 24.3343,-90.4985 -48.5138,-176.281zm-0.0661418 229.707c-17.778,0 -35.3929,-4.94055 -50.191,-15.215 -17.8004,-12.365 -70.6264,-62.2217 -2.94095,-184.922 3.69331,-6.69213 7.29804,-12.4276 10.7882,-17.9776 9.54922,-15.2067 16.4445,-26.1803 18.398,-46.0122 0.608268,-6.17835 4.76575,-11.4354 10.6394,-13.4504 5.87717,-2.02087 12.3815,-0.413386 16.6559,4.09607 134.342,141.799 87.0001,220.101 69.2918,240.722 -18.378,21.3945 -45.6933,32.7626 -72.6414,32.7591z"/>
   <path id="_293709720" class="fil0" d="M1665.54 1374.92c-3.59764,0 -7.21536,-1.21063 -10.1894,-3.70512 -6.7063,-5.63386 -7.58268,-15.6354 -1.94882,-22.3477 78.0922,-93.0473 38.5855,-238.635 38.1768,-240.097 -2.35394,-8.42835 2.56063,-17.1791 10.9854,-19.5461 8.42953,-2.3752 17.1768,2.53937 19.5508,10.9606 1.86024,6.60473 44.5666,163.05 -44.4201,269.077 -3.13583,3.73583 -7.62875,5.66221 -12.1547,5.65867z"/>
   <path id="_293709600" class="fil0" d="M1434.13 1141.13c9.13938,112.168 51.5162,156.008 90.3367,158.953 30.4725,2.31732 60.4949,-19.8768 65.6504,-48.4524 7.09016,-39.3012 -32.6398,-75.4583 -106.272,-96.7347 -6.47599,-1.87914 -12.6378,-3.2752 -18.5977,-4.63819 -10.4693,-2.38937 -20.6244,-4.70788 -31.1173,-9.12757zm94.7528 190.838c-2.26772,0 -4.53544,-0.0850394 -6.81615,-0.257481 -27.104,-2.06575 -115.942,-23.9457 -121.217,-219.213 -0.168898,-6.2126 3.30473,-11.9445 8.88426,-14.6693 5.57126,-2.74134 12.2315,-1.95827 17.0303,1.98662 15.4016,12.6402 28.0477,15.5291 45.541,19.5225 6.39331,1.45276 13.0016,2.96811 20.3445,5.08701 134.623,38.8961 132.529,111.513 128.68,132.84 -7.65237,42.4122 -48.3201,74.706 -92.4473,74.7036z"/>
   <path id="_293709744" class="fil0" d="M1665.55 1374.92c-1.35945,0 -2.7378,-0.166536 -4.11378,-0.537402 -115.832,-31.0477 -178.044,-153.853 -180.634,-159.064 -3.89764,-7.84607 -0.702756,-17.3634 7.13977,-21.261 7.84371,-3.90591 17.3516,-0.7063 21.2528,7.12441 0.575197,1.15158 58.617,115.274 160.452,142.565 8.45906,2.26417 13.4811,10.9642 11.2134,19.4232 -1.9004,7.08426 -8.30552,11.7579 -15.3095,11.7496z"/>
   <path id="_293709048" class="fil0" d="M1665.55 1471.28c-8.75906,0 -15.8587,-7.10079 -15.8587,-15.8563l0 -96.3662c0,-8.75316 7.09843,-15.8539 15.8575,-15.8539 8.76024,0 15.8599,7.10552 15.8599,15.861l0 96.3544c0,8.75316 -7.09961,15.8622 -15.8587,15.861z"/>
   <path id="_293709096" class="fil0" d="M1580.69 1787.49c-8.24764,0 -15.2114,-6.38504 -15.802,-14.739l-18.1701 -255.705c-0.62126,-8.73426 5.95394,-16.3205 14.6929,-16.9394 8.72245,-0.660237 16.3217,5.95512 16.9406,14.6929l18.1725 255.704c0.620079,8.73544 -5.9563,16.3228 -14.6953,16.9406 -0.379134,0.0271654 -0.762993,0.046063 -1.13858,0.046063zm169.702 0c-0.375591,0 -0.755906,-0.0165354 -1.13976,-0.046063 -8.73544,-0.622441 -15.3142,-8.20512 -14.6953,-16.9406l18.176 -255.716c0.620079,-8.73426 8.17796,-15.3177 16.9453,-14.6811 8.73544,0.612993 15.313,8.20158 14.6906,16.9394l-18.1713 255.706c-0.595276,8.34449 -7.55788,14.7378 -15.8055,14.7378z"/>
   <path id="_293708760" class="fil0" d="M1567.52 1471.28c-8.04922,0 -14.5996,6.54804 -14.5996,14.5973 0.0011811,8.03977 6.54922,14.5949 14.5996,14.5949l196.056 -0.00472441c8.04922,0 14.5949,-6.54095 14.5949,-14.5902 0,-8.04568 -6.54686,-14.5961 -14.5949,-14.5961l-196.056 -0.0011811zm196.056 60.9012l-196.056 0c-25.539,0 -46.3122,-20.765 -46.3122,-46.304 0,-25.5437 20.7721,-46.3134 46.3122,-46.3134l196.056 -0.00826772c25.5355,0 46.3122,20.7815 46.3122,46.3217 0.0011811,25.5272 -20.778,46.3122 -46.3122,46.304z"/>
  </g>
 </g>
 <rect class="fil1" width="2048" height="2048"/>
</svg>
