<?xml version="1.0" encoding="UTF-8"?>
<!DOCTYPE svg PUBLIC "-//W3C//DTD SVG 1.1//EN" "http://www.w3.org/Graphics/SVG/1.1/DTD/svg11.dtd">
<!-- Creator: CorelDRAW -->
<svg xmlns="http://www.w3.org/2000/svg" xml:space="preserve" width="1.70666in" height="1.70666in" version="1.1" style="shape-rendering:geometricPrecision; text-rendering:geometricPrecision; image-rendering:optimizeQuality; fill-rule:evenodd; clip-rule:evenodd"
viewBox="0 0 1707 1707"
 xmlns:xlink="http://www.w3.org/1999/xlink">
 <defs>
  <style type="text/css">
   <![CDATA[
    .fil0 {fill:#b7974f}
   ]]>
  </style>
 </defs>
 <g id="Layer_x0020_1">
  <metadata id="CorelCorpID_0Corel-Layer"/>
  <g id="_439309616">
   <g>
    <path class="fil0" d="M1308 1707l-1241 0c-14,0 -25,-11 -25,-25l0 -1380c0,-14 11,-25 25,-25l224 0 0 -253c0,-13 12,-25 25,-25l992 0c14,0 25,12 25,25l0 1658c-1,14 -12,25 -25,25zm-1218 -48l1193 0 0 -1610 -943 0 0 253c0,14 -11,25 -25,25l-225 0 0 1332z"/>
   </g>
   <g>
    <path class="fil0" d="M316 325l-249 0c-10,0 -18,-5 -22,-13 -5,-9 -3,-20 4,-27l249 -276c7,-7 18,-10 27,-7 9,4 15,13 15,22l0 276c0,14 -10,25 -24,25zm-195 -48l170 0 0 -189 -170 189z"/>
   </g>
   <g>
    <g>
     <path class="fil0" d="M1640 1431l-235 0c-13,0 -24,-11 -24,-25l0 -1144c0,-14 11,-25 24,-25l235 0c14,0 25,11 25,25l0 1146c-1,12 -13,23 -25,23zm-211 -48l186 0 0 -1098 -186 0 0 1098z"/>
    </g>
    <g>
     <path class="fil0" d="M1530 1707c-9,0 -18,-5 -22,-14l-125 -276c-5,-12 0,-26 13,-32 12,-5 26,0 32,13l101 223 89 -222c5,-12 19,-18 32,-14 12,6 18,20 14,32l-110 276c-6,7 -14,14 -24,14 0,0 0,0 0,0z"/>
    </g>
    <g>
     <path class="fil0" d="M1640 285c-14,0 -25,-11 -25,-25l0 -211 -186 0 0 213c0,14 -11,25 -25,25 -14,0 -25,-11 -25,-25l0 -238c0,-13 11,-25 25,-25l235 0c13,0 25,12 25,25l0 238c0,14 -12,23 -24,23z"/>
    </g>
    <g>
     <path class="fil0" d="M1522 1209c-14,0 -25,-11 -25,-25l0 -922c0,-14 11,-25 25,-25 14,0 25,11 25,25l0 922c0,14 -11,25 -25,25z"/>
    </g>
   </g>
   <g>
    <path class="fil0" d="M559 1012c-4,0 -8,-1 -12,-3l-132 -76c-11,-7 -15,-21 -8,-33l61 -106c-23,-25 -41,-54 -53,-84l-125 0c-14,0 -25,-11 -25,-25l0 -153c0,-14 11,-25 25,-25l119 0c7,-18 14,-36 24,-53 7,-12 15,-26 25,-37l-61 -105c-3,-7 -4,-13 -3,-20 2,-5 6,-11 11,-15l132 -76c11,-7 26,-3 33,8l60 104c33,-6 68,-6 101,0l63 -108c7,-11 20,-16 33,-9l133 77c6,3 10,8 11,15 2,7 2,12 -3,18l-62 108c21,25 38,53 49,82l130 0c14,0 25,11 25,25l0 153c0,14 -11,25 -25,25l-129 0c-6,16 -12,32 -22,47 -7,12 -15,23 -24,34l67 116c3,5 4,12 3,18 -2,5 -6,11 -12,15l-131 76c-6,3 -13,4 -18,3 -6,-1 -11,-6 -16,-11l-62 -110c-32,6 -65,7 -96,3l-64 112c-2,6 -8,10 -15,12 -3,-2 -5,-2 -7,-2zm-98 -109l90 51 61 -106c5,-9 15,-13 26,-11 35,7 74,6 110,-4 11,-3 22,2 28,11l59 104 90 -51 -62 -108c-5,-10 -4,-21 3,-29 11,-11 21,-25 29,-39 10,-17 17,-33 22,-54 3,-10 13,-17 24,-17l122 0 0 -104 -124 0c-11,0 -19,-7 -23,-17 -11,-34 -31,-68 -56,-94 -7,-8 -8,-19 -3,-29l60 -103 -93 -52 -58 102c-6,10 -17,14 -26,11 -39,-9 -77,-9 -116,0 -11,3 -20,-2 -26,-11l-57 -98 -90 51 58 100c6,10 4,21 -2,29 -13,14 -24,28 -32,43 -12,18 -20,38 -25,58 -3,13 -13,20 -24,20l-112 0 0 104 118 0c11,0 19,7 23,16 13,38 33,71 60,96 8,8 10,20 4,29l-58 102z"/>
   </g>
   <g>
    <path class="fil0" d="M683 739c-24,0 -47,-6 -70,-18 -66,-39 -88,-124 -51,-189 19,-33 50,-55 86,-65 36,-10 72,-4 104,14 32,18 56,47 65,83 10,36 4,74 -14,106 -25,44 -72,69 -120,69zm0 -229c-7,0 -16,1 -23,3 -23,5 -43,21 -55,43 -25,43 -10,97 33,122 43,25 99,10 122,-33 13,-21 16,-46 10,-70 -7,-23 -21,-41 -42,-54 0,0 0,0 0,0 -15,-7 -30,-11 -45,-11z"/>
   </g>
   <g>
    <path class="fil0" d="M1127 1162l-879 0c-13,0 -25,-11 -25,-25 0,-14 12,-25 25,-25l879 0c14,0 25,11 25,25 0,14 -11,25 -25,25z"/>
   </g>
   <g>
    <path class="fil0" d="M1024 1291l-671 0c-14,0 -25,-11 -25,-25 0,-14 11,-25 25,-25l671 0c14,0 25,11 25,25 0,14 -13,25 -25,25z"/>
   </g>
   <g>
    <path class="fil0" d="M1127 1419l-879 0c-13,0 -25,-11 -25,-25 0,-14 12,-25 25,-25l879 0c14,0 25,11 25,25 0,14 -11,25 -25,25z"/>
   </g>
   <g>
    <path class="fil0" d="M1024 1548l-671 0c-14,0 -25,-11 -25,-25 0,-14 11,-25 25,-25l671 0c14,0 25,11 25,25 0,14 -13,25 -25,25z"/>
   </g>
  </g>
 </g>
</svg>
