<?xml version="1.0" encoding="UTF-8"?>
<!DOCTYPE svg PUBLIC "-//W3C//DTD SVG 1.1//EN" "http://www.w3.org/Graphics/SVG/1.1/DTD/svg11.dtd">
<!-- Creator: CorelDRAW -->
<svg xmlns="http://www.w3.org/2000/svg" xml:space="preserve" width="1.70666in" height="1.70666in" version="1.1" style="shape-rendering:geometricPrecision; text-rendering:geometricPrecision; image-rendering:optimizeQuality; fill-rule:evenodd; clip-rule:evenodd"
viewBox="0 0 1707 1707"
 xmlns:xlink="http://www.w3.org/1999/xlink">
 <defs>
  <style type="text/css">
   <![CDATA[
    .fil0 {fill:#b7974f}
   ]]>
  </style>
 </defs>
 <g id="Layer_x0020_1">
  <metadata id="CorelCorpID_0Corel-Layer"/>
  <g id="_439325648">
   <g>
    <path class="fil0" d="M1308 1707l-1243 0c-14,0 -25,-11 -25,-25l0 -1380c0,-14 11,-25 25,-25l226 0 0 -253c0,-13 11,-25 25,-25l992 0c14,0 25,12 25,25l0 1658c-2,14 -11,25 -25,25zm-1218 -48l1194 0 0 -1610 -943 0 0 253c0,14 -11,25 -25,25l-226 0 0 1332z"/>
   </g>
   <g>
    <path class="fil0" d="M316 325l-251 0c-10,0 -18,-5 -23,-13 -4,-9 -2,-20 5,-27l251 -276c7,-7 18,-10 26,-7 10,4 15,13 15,22l0 276c2,14 -9,25 -23,25zm-196 -48l172 0 0 -189 -172 189z"/>
   </g>
   <g>
    <path class="fil0" d="M312 532c-7,0 -14,-3 -18,-8 -9,-10 -7,-25 2,-35l351 -297c23,-18 57,-18 79,0l351 297c10,8 11,24 3,35 -8,10 -23,11 -35,3l-351 -297c-4,-3 -12,-3 -16,0l-351 295c-4,4 -10,7 -15,7z"/>
   </g>
   <g>
    <path class="fil0" d="M975 921c-14,0 -24,-11 -25,-24l-2 -462c0,-14 11,-25 24,-25 0,0 0,0 0,0 14,0 24,11 25,24l1 462c2,14 -9,25 -23,25 0,0 0,0 0,0zm-579 0c-14,0 -25,-11 -25,-25l0 -461c0,-14 11,-25 25,-25 14,0 25,13 25,25l0 462c0,13 -11,24 -25,24z"/>
   </g>
   <g>
    <path class="fil0" d="M793 921c-14,0 -25,-11 -25,-25l0 -153c0,-46 -37,-83 -83,-83 -46,0 -83,37 -83,83l0 153c0,14 -12,25 -25,25 -14,0 -25,-11 -25,-25l0 -153c0,-72 58,-132 131,-132 74,0 132,59 132,132l0 153c3,14 -8,25 -22,25z"/>
   </g>
   <g>
    <path class="fil0" d="M686 547c-50,0 -90,-40 -90,-91 0,-50 40,-90 90,-90 50,0 90,40 90,90 0,51 -40,91 -90,91zm0 -133c-23,0 -41,18 -41,42 0,23 18,43 41,43 24,0 42,-18 42,-43 0,-22 -18,-42 -42,-42z"/>
   </g>
   <g>
    <path class="fil0" d="M1019 1034l-664 0c-14,0 -25,-11 -25,-25l0 -113c0,-14 11,-25 25,-25l664 0c14,0 25,11 25,25l0 113c-1,16 -11,25 -25,25zm-641 -48l616 0 0 -65 -616 0 0 65z"/>
   </g>
   <g>
    <path class="fil0" d="M1194 1170l-1014 0c-14,0 -25,-11 -25,-25 0,-14 11,-25 25,-25l1014 0c14,0 24,11 24,25 0,14 -10,25 -24,25z"/>
   </g>
   <g>
    <path class="fil0" d="M1194 1290l-1014 0c-14,0 -25,-11 -25,-25 0,-14 11,-25 25,-25l1014 0c14,0 24,11 24,25 0,14 -10,25 -24,25z"/>
   </g>
   <g>
    <path class="fil0" d="M1194 1409l-1014 0c-14,0 -25,-11 -25,-25 0,-14 11,-25 25,-25l1014 0c14,0 24,11 24,25 0,14 -10,25 -24,25z"/>
   </g>
   <g>
    <path class="fil0" d="M1194 1528l-1014 0c-14,0 -25,-11 -25,-25 0,-14 11,-25 25,-25l1014 0c14,0 24,11 24,25 0,14 -10,25 -24,25z"/>
   </g>
   <g>
    <g>
     <path class="fil0" d="M1642 1431l-234 0c-14,0 -25,-11 -25,-25l0 -1144c0,-14 11,-25 25,-25l234 0c14,0 25,11 25,25l0 1146c0,12 -11,23 -25,23zm-211 -48l186 0 0 -1098 -186 0 0 1098z"/>
    </g>
    <g>
     <path class="fil0" d="M1532 1707c-9,0 -18,-5 -22,-14l-125 -276c-5,-12 0,-26 13,-32 12,-5 26,0 32,13l101 223 89 -222c5,-12 19,-18 32,-14 12,6 18,20 14,32l-110 276c-4,7 -14,14 -24,14 0,0 0,0 0,0z"/>
    </g>
    <g>
     <path class="fil0" d="M1642 285c-14,0 -25,-11 -25,-25l0 -211 -186 0 0 213c0,14 -11,25 -25,25 -14,0 -25,-11 -25,-25l0 -238c0,-13 11,-25 25,-25l236 0c14,0 25,12 25,25l0 238c0,14 -11,23 -25,23z"/>
    </g>
    <g>
     <path class="fil0" d="M1525 1209c-13,0 -24,-11 -24,-25l0 -922c0,-14 11,-25 24,-25 14,0 25,11 25,25l0 922c-1,14 -11,25 -25,25z"/>
    </g>
   </g>
  </g>
 </g>
</svg>
