<?xml version="1.0" encoding="UTF-8"?>
<!DOCTYPE svg PUBLIC "-//W3C//DTD SVG 1.1//EN" "http://www.w3.org/Graphics/SVG/1.1/DTD/svg11.dtd">
<!-- Creator: CorelDRAW -->
<svg xmlns="http://www.w3.org/2000/svg" xml:space="preserve" width="1.70666in" height="1.70666in" version="1.1" style="shape-rendering:geometricPrecision; text-rendering:geometricPrecision; image-rendering:optimizeQuality; fill-rule:evenodd; clip-rule:evenodd"
viewBox="0 0 1707 1707"
 xmlns:xlink="http://www.w3.org/1999/xlink">
 <defs>
  <style type="text/css">
   <![CDATA[
    .fil0 {fill:#b7974f}
   ]]>
  </style>
 </defs>
 <g id="Layer_x0020_1">
  <metadata id="CorelCorpID_0Corel-Layer"/>
  <g id="_616088664">
   <g>
    <g>
     <path class="fil0" d="M1427 1559l-1146 0c-14,0 -25,-11 -25,-25l0 -176c0,-14 11,-25 25,-25l1146 0c14,0 25,11 25,25l0 176c-1,14 -13,25 -25,25zm-1122 -49l1097 0 0 -127 -1097 0 0 127z"/>
    </g>
    <g>
     <path class="fil0" d="M1408 1559c-10,0 -20,-7 -24,-17 -4,-12 3,-26 15,-30l204 -68 -202 -61c-13,-5 -21,-18 -17,-31 4,-12 18,-21 31,-17l276 84c9,2 16,12 16,22 0,11 -7,19 -16,23l-276 93c-2,2 -5,2 -7,2z"/>
    </g>
    <g>
     <path class="fil0" d="M262 1559l-238 0c-13,0 -25,-11 -25,-25l0 -176c0,-14 12,-25 25,-25l238 0c14,0 25,11 25,25 0,13 -11,25 -25,25l-213 0 0 127 213 0c14,0 25,11 25,25 0,14 -11,24 -25,24z"/>
    </g>
    <g>
     <path class="fil0" d="M296 1279l-251 0c-14,0 -25,-12 -25,-25l0 -906c0,-14 11,-25 25,-25l251 0c14,0 25,11 25,25l0 907c0,12 -11,24 -25,24zm-226 -49l203 0 0 -859 -203 0 0 859z"/>
    </g>
    <g>
     <path class="fil0" d="M148 1202l-103 0c-14,0 -25,-11 -25,-25 0,-14 11,-25 25,-25l103 0c14,0 25,11 25,25 0,14 -11,25 -25,25z"/>
    </g>
    <g>
     <path class="fil0" d="M113 1126l-68 0c-14,0 -25,-11 -25,-25 0,-14 11,-25 25,-25l68 0c14,0 25,11 25,25 0,14 -11,25 -25,25z"/>
    </g>
    <g>
     <path class="fil0" d="M113 976l-68 0c-14,0 -25,-11 -25,-25 0,-14 11,-25 25,-25l68 0c14,0 25,11 25,25 0,14 -11,25 -25,25z"/>
    </g>
    <g>
     <path class="fil0" d="M113 825l-68 0c-14,0 -25,-11 -25,-25 0,-14 11,-25 25,-25l68 0c14,0 25,11 25,25 0,14 -11,25 -25,25z"/>
    </g>
    <g>
     <path class="fil0" d="M113 674l-68 0c-14,0 -25,-11 -25,-25 0,-14 11,-25 25,-25l68 0c14,0 25,11 25,25 0,14 -11,25 -25,25z"/>
    </g>
    <g>
     <path class="fil0" d="M113 524l-68 0c-14,0 -25,-11 -25,-25 0,-14 11,-25 25,-25l68 0c14,0 25,11 25,25 0,14 -11,25 -25,25z"/>
    </g>
    <g>
     <path class="fil0" d="M148 1051l-103 0c-14,0 -25,-11 -25,-25 0,-14 11,-25 25,-25l103 0c14,0 25,11 25,25 0,14 -11,25 -25,25z"/>
    </g>
    <g>
     <path class="fil0" d="M148 900l-103 0c-14,0 -25,-11 -25,-25 0,-14 11,-25 25,-25l103 0c14,0 25,11 25,25 0,14 -11,25 -25,25z"/>
    </g>
    <g>
     <path class="fil0" d="M148 750l-103 0c-14,0 -25,-11 -25,-25 0,-14 11,-25 25,-25l103 0c14,0 25,11 25,25 0,14 -11,25 -25,25z"/>
    </g>
    <g>
     <path class="fil0" d="M148 599l-103 0c-14,0 -25,-11 -25,-25 0,-14 11,-25 25,-25l103 0c14,0 25,11 25,25 0,14 -11,25 -25,25z"/>
    </g>
    <g>
     <path class="fil0" d="M148 449l-103 0c-14,0 -25,-11 -25,-25 0,-14 11,-25 25,-25l103 0c14,0 25,11 25,25 0,14 -11,25 -25,25z"/>
    </g>
    <g>
     <path class="fil0" d="M1510 1280l-1111 0c-14,0 -25,-11 -25,-25l0 -910c0,-14 11,-25 25,-25l939 0c14,0 25,11 25,25 0,14 -11,25 -25,25l-915 0 0 863 1087 0c70,0 128,-59 128,-128l0 -87c0,-14 11,-25 25,-25 14,0 25,11 25,25l0 87c-2,96 -81,175 -178,175z"/>
    </g>
    <g>
     <path class="fil0" d="M1138 780l-538 0c-18,0 -33,-9 -40,-24 -8,-20 -3,-46 12,-63l254 -254c22,-22 63,-22 86,0l254 254c15,15 22,43 14,63 -8,15 -24,24 -42,24zm-535 -48l530 0c0,-3 -2,-4 -3,-6l-5 -5 -247 -248c-5,-5 -16,-3 -18,0l-254 253c-2,0 -2,3 -3,6z"/>
    </g>
    <g>
     <path class="fil0" d="M1123 1180l-509 0c-14,0 -25,-11 -25,-25l0 -401c0,-14 11,-25 25,-25 14,0 25,11 25,25l0 376 459 0 0 -376c0,-14 11,-25 25,-25 14,0 25,11 25,25l0 401c-1,15 -12,25 -25,25z"/>
    </g>
    <g>
     <path class="fil0" d="M965 1180c-14,0 -25,-11 -25,-25l0 -176 -143 0 0 176c0,14 -11,25 -25,25 -14,0 -25,-11 -25,-25l0 -201c0,-14 11,-25 25,-25l193 0c14,0 25,11 25,25l0 201c0,15 -11,25 -25,25z"/>
    </g>
    <g>
     <path class="fil0" d="M1663 1041c-14,0 -25,-11 -25,-25 0,-76 -61,-137 -137,-137 -77,0 -139,61 -139,137 0,14 -11,25 -25,25 -14,0 -25,-11 -25,-25l0 -682c0,-103 83,-186 187,-186 103,0 186,83 186,186l0 684c1,14 -10,23 -22,23zm-162 -845c-77,0 -139,61 -139,138l0 559c34,-38 83,-61 139,-61 54,0 104,23 137,61l0 -559c0,-77 -61,-138 -137,-138z"/>
    </g>
   </g>
  </g>
 </g>
</svg>
