<?xml version="1.0" encoding="UTF-8"?>
<!DOCTYPE svg PUBLIC "-//W3C//DTD SVG 1.1//EN" "http://www.w3.org/Graphics/SVG/1.1/DTD/svg11.dtd">
<!-- Creator: CorelDRAW -->
<svg xmlns="http://www.w3.org/2000/svg" xml:space="preserve" width="1.70666in" height="1.70666in" version="1.1" style="shape-rendering:geometricPrecision; text-rendering:geometricPrecision; image-rendering:optimizeQuality; fill-rule:evenodd; clip-rule:evenodd"
viewBox="0 0 1707 1707"
 xmlns:xlink="http://www.w3.org/1999/xlink">
 <defs>
  <style type="text/css">
   <![CDATA[
    .fil0 {fill:#b7974f}
   ]]>
  </style>
 </defs>
 <g id="Layer_x0020_1">
  <metadata id="CorelCorpID_0Corel-Layer"/>
  <g id="_422634600">
   <g>
    <g>
     <path class="fil0" d="M1677 718c-6,0 -11,-2 -15,-6l-772 -651c-20,-16 -54,-16 -75,0l-769 651c-10,8 -25,7 -35,-3 -10,-9 -7,-25 3,-34l771 -651c37,-32 98,-32 137,0l772 652c9,8 11,24 2,35 -5,4 -12,7 -19,7z"/>
    </g>
    <g>
     <path class="fil0" d="M1487 1568c-14,0 -24,-11 -25,-24l-1 -1014c0,-14 11,-25 23,-25 0,0 0,0 0,0 14,0 24,11 25,24l2 1014c1,15 -10,25 -24,25 0,0 0,0 0,0zm-1269 0c-14,0 -25,-11 -25,-25l0 -1013c0,-14 11,-25 25,-25 13,0 25,11 25,25l0 1013c0,15 -12,25 -25,25z"/>
    </g>
    <g>
     <path class="fil0" d="M1630 1707l-1544 0c-14,0 -25,-11 -25,-25l0 -127c0,-13 11,-24 25,-24l1544 0c14,0 25,11 25,24l0 127c0,14 -11,25 -25,25zm-1519 -49l1495 0 0 -78 -1495 0 0 78z"/>
    </g>
    <g>
     <path class="fil0" d="M724 626l-232 0c-14,0 -25,-11 -25,-25l0 -151c0,-14 11,-25 25,-25l232 0c14,0 25,11 25,25l0 151c-2,14 -13,25 -25,25zm-208 -49l183 0 0 -102 -183 0 0 102z"/>
    </g>
    <g>
     <path class="fil0" d="M1214 626l-232 0c-14,0 -25,-11 -25,-25l0 -151c0,-14 11,-25 25,-25l232 0c14,0 25,11 25,25l0 151c0,14 -11,25 -25,25zm-207 -49l183 0 0 -102 -183 0 0 102z"/>
    </g>
    <g>
     <path class="fil0" d="M1458 536c-14,0 -25,-11 -25,-25l0 -319c0,-14 11,-25 25,-25 14,0 25,11 25,25l0 319c0,14 -11,25 -25,25zm-181 -156c-13,0 -25,-11 -25,-25l0 -162c0,-14 12,-25 25,-25 14,0 25,11 25,25l0 162c0,14 -11,25 -25,25z"/>
    </g>
    <g>
     <path class="fil0" d="M1488 217l-240 0c-14,0 -25,-11 -25,-25l0 -61c0,-46 38,-85 85,-85l121 0c45,0 84,38 84,85l0 61c-1,15 -11,25 -25,25zm-216 -49l191 0 0 -36c0,-19 -16,-36 -36,-36l-119 0c-19,0 -36,17 -36,36l0 36z"/>
    </g>
    <g>
     <path class="fil0" d="M1140 1198c-54,0 -104,-27 -133,-71l-93 0c-14,0 -25,-11 -25,-25l0 -126c0,-14 11,-25 25,-25l93 0c29,-45 79,-71 133,-71 58,0 112,33 139,83 4,7 4,15 0,22 -4,7 -11,13 -18,13l-110 12 0 53 110 11c8,1 15,6 19,13 4,7 4,15 0,22 -26,55 -80,89 -140,89zm-201 -120l83 0c10,0 17,6 22,13 18,36 56,58 97,58 28,0 53,-10 73,-28l-88 -9c-12,-2 -22,-12 -22,-24l0 -97c0,-13 10,-22 22,-24l88 -9c-20,-17 -46,-28 -73,-28 -41,0 -79,22 -97,58 -4,8 -12,13 -22,13l-83 0 0 77zm-398 79c-65,0 -118,-52 -118,-118 0,-65 53,-116 118,-116 29,0 58,11 79,30l170 0c14,0 25,11 25,25l0 127c0,13 -11,25 -25,25l-170 0c-22,16 -50,27 -79,27zm0 -187c-39,0 -70,31 -70,68 0,39 32,69 70,69 19,0 37,-8 51,-22 4,-5 11,-8 18,-8l157 0 0 -78 -157 0c-7,0 -14,-3 -18,-8 -12,-13 -32,-21 -51,-21z"/>
    </g>
    <g>
     <path class="fil0" d="M790 1469c-4,0 -8,-1 -11,-2 -52,-28 -84,-82 -84,-140 0,-55 28,-103 72,-134l0 -388c-20,-22 -31,-50 -31,-79 0,-65 53,-117 118,-117 66,0 117,53 117,117 0,29 -11,57 -31,79l0 388c45,30 72,79 72,134 0,58 -31,112 -83,140 -7,4 -15,4 -22,0 -7,-4 -12,-11 -12,-20l-13 -111 -53 0 -11 110c-1,8 -5,15 -12,19 -9,4 -11,4 -16,4zm63 -811c-39,0 -69,30 -69,68 0,25 12,41 22,51 5,4 8,11 8,18l0 412c0,9 -5,17 -12,21 -36,20 -60,57 -60,97 0,28 10,53 28,74l9 -89c2,-13 11,-22 24,-22l97 0c13,0 22,9 24,22l9 89c18,-20 28,-46 28,-72 0,-41 -22,-78 -60,-98 -8,-4 -12,-12 -12,-20l0 -412c0,-7 3,-14 8,-18 11,-10 23,-27 23,-52 2,-39 -30,-69 -67,-69z"/>
    </g>
    <g>
     <path class="fil0" d="M877 738l-46 0c-14,0 -25,-11 -25,-25 0,-13 11,-25 25,-25l46 0c13,0 24,12 24,25 0,14 -12,25 -24,25z"/>
    </g>
    <g>
     <path class="fil0" d="M538 1087c-14,0 -25,-12 -25,-25l0 -46c0,-14 11,-25 25,-25 14,0 25,11 25,25l0 46c0,13 -11,25 -25,25z"/>
    </g>
   </g>
  </g>
 </g>
</svg>
