<?xml version="1.0" encoding="UTF-8"?>
<!DOCTYPE svg PUBLIC "-//W3C//DTD SVG 1.1//EN" "http://www.w3.org/Graphics/SVG/1.1/DTD/svg11.dtd">
<!-- Creator: CorelDRAW -->
<svg xmlns="http://www.w3.org/2000/svg" xml:space="preserve" width="173.397mm" height="173.397mm" style="shape-rendering:geometricPrecision; text-rendering:geometricPrecision; image-rendering:optimizeQuality; fill-rule:evenodd; clip-rule:evenodd"
viewBox="0 0 173.397 173.397"
 xmlns:xlink="http://www.w3.org/1999/xlink">
 <defs>
  <style type="text/css">
   <![CDATA[
    .fil1 {fill:none}
    .fil0 {fill:#b7974f}
   ]]>
  </style>
 </defs>
 <g id="Layer_x0020_1">
  <metadata id="CorelCorpID_0Corel-Layer"/>
  <g id="_314303776">
   <path id="_314304400" class="fil0" d="M12.846 149.7l147.706 0 0 -14.5113 -28.3372 0c-0.7411,0 -1.343,-0.6012 -1.343,-1.3425l0 -13.2596 -28.9241 0c-0.7412,0 -1.3395,-0.6012 -1.3395,-1.3425l0.0005 -12.5531 -28.925 0c-0.7442,0 -1.3428,-0.6014 -1.3428,-1.3427l0.0006 -12.4376 -28.9248 0c-0.7412,0 -1.3429,-0.6015 -1.3429,-1.3427l0.0007 -16.4414 -27.2287 0 0 74.5734zm149.049 2.6855l-150.392 0c-0.7411,0 -1.343,-0.6014 -1.343,-1.3427l0 -77.2593c0,-0.7411 0.6013,-1.3423 1.3427,-1.3423l29.9142 -0.0002c0.7411,0 1.3425,0.6016 1.3425,1.3429l0.0004 16.4412 28.9241 0c0.742,0 1.3427,0.6016 1.3427,1.3429l0.0003 12.4375 28.921 0c0.745,0 1.3424,0.6015 1.3424,1.3428l0.0006 12.5528 28.9241 0c0.7411,0 1.3424,0.6017 1.3424,1.343l0.0005 13.2591 28.3372 0c0.7412,0 1.342,0.6017 1.342,1.343l0.0002 17.1963c0,0.7415 -0.6014,1.3431 -1.3422,1.343z"/>
   <path id="_314303584" class="fil0" d="M152.944 135.189c-0.7411,0 -1.3432,-0.6012 -1.3432,-1.3425l0.0002 -50.0866 -7.6818 0 0 50.0865c0,0.7411 -0.602,1.3429 -1.3433,1.3429 -0.7408,-0.0003 -1.3427,-0.6015 -1.3427,-1.3428l0 -51.4292c0,-0.7412 0.6014,-1.3425 1.3427,-1.3425l10.3681 -0.0001c0.7411,0 1.3422,0.6014 1.3422,1.3428l0.0007 51.4289c0,0.7411 -0.6021,1.3429 -1.3429,1.3426z"/>
   <path id="_314303968" class="fil0" d="M122.795 120.587c-0.7411,0 -1.3433,-0.6012 -1.3433,-1.3425l0.0003 -50.0898 -7.6818 0 0 50.0897c0,0.7411 -0.6021,1.3429 -1.3434,1.3429 -0.7407,-0.0003 -1.3427,-0.6015 -1.3427,-1.3428l0.0001 -51.4292c0,-0.7446 0.6015,-1.3425 1.3426,-1.3425l10.3682 -0.0001c0.7411,0 1.3422,0.598 1.3422,1.3427l0.0007 51.429c0,0.7411 -0.6022,1.3429 -1.3429,1.3426z"/>
   <path id="_314303920" class="fil0" d="M91.8814 106.691c-0.7419,0 -1.3433,-0.6014 -1.3433,-1.3427l0.0004 -50.09 -7.6827 0 0 50.0897c0,0.7415 -0.6013,1.3431 -1.3427,1.3431 -0.7414,-0.0001 -1.3429,-0.6015 -1.3429,-1.3428l0.0004 -51.4325c0,-0.7415 0.6011,-1.3428 1.3425,-1.3428l10.3683 -0.0003c0.7411,0 1.3419,0.6018 1.3419,1.3431l0.0003 51.4322c0,0.7415 -0.6016,1.3431 -1.3422,1.343z"/>
   <path id="_314304136" class="fil0" d="M62.4498 92.9106c-0.7419,0 -1.3398,-0.6015 -1.3398,-1.3427l0 -50.0864 -7.6818 0 0 50.0861c0,0.7415 -0.6018,1.343 -1.3432,1.343 -0.741,0 -1.3426,-0.6015 -1.3426,-1.3427l0.0006 -51.4295c0,-0.7411 0.6006,-1.3423 1.342,-1.3423l10.3648 -0.0002c0.7443,0 1.342,0.6016 1.342,1.3429l0.0002 51.4288c0,0.7415 -0.598,1.343 -1.3422,1.343z"/>
   <path id="_314303464" class="fil0" d="M31.6438 75.1265c-0.7411,0 -1.343,-0.6014 -1.343,-1.3427l0 -50.0865 -7.6818 0 0 50.0861c0,0.7416 -0.6018,1.3431 -1.3431,1.3431 -0.741,0 -1.3427,-0.6014 -1.3427,-1.3427l0.0007 -51.429c0,-0.7416 0.6007,-1.3428 1.342,-1.3428l10.3679 -0.0002c0.7411,0 1.3425,0.6016 1.3425,1.343l0.0005 51.4286c0,0.7416 -0.602,1.3431 -1.343,1.3431z"/>
   <path id="_314303560" class="fil0" d="M44.5505 43.3799c-2.2485,0 -4.2807,-0.5662 -6.0851,-1.6991 -7.8215,-4.9234 -8.1541,-18.7177 -8.1646,-19.3016 -0.0133,-0.7416 0.5769,-1.3531 1.3183,-1.3672 0.0075,-0.0002 0.0175,0 0.0244,0 0.7312,-0.0002 1.3287,0.584 1.3428,1.3183l0.0005 -0.0003c0,0.1294 0.3176,12.9344 6.9123,17.078 2.9552,1.8567 6.8641,1.6924 11.6264,-0.4895 0.6715,-0.3114 1.4687,-0.014 1.7799,0.6608 0.3084,0.6712 0.0105,1.4687 -0.6608,1.7799 -2.9401,1.346 -5.6471,2.021 -8.0941,2.0207z"/>
   <path id="_314303824" class="fil0" d="M73.1701 57.419c-2.2659,0 -4.259,-0.5696 -5.9654,-1.7129 -6.4613,-4.3293 -6.1121,-15.1617 -6.0947,-15.6197 0.0283,-0.7414 0.6538,-1.3217 1.395,-1.2903 0.7387,0.0277 1.3149,0.6539 1.2868,1.3952 -0.0029,0.1573 -0.2866,9.8117 4.9094,13.2873 2.8498,1.9019 6.9724,1.64 12.2523,-0.7833 0.6749,-0.3079 1.4721,-0.0139 1.7799,0.661 0.3112,0.6747 0.014,1.4721 -0.6608,1.7797 -3.3142,1.5211 -6.2906,2.2833 -8.9025,2.283z"/>
   <path id="_314303656" class="fil0" d="M104.004 71.308c-2.3076,0 -4.3779,-0.5628 -6.1891,-1.6958 -6.9095,-4.3115 -7.2626,-15.1999 -7.2765,-15.6615 -0.017,-0.7415 0.5698,-1.3568 1.3111,-1.3778 0.011,-0.0003 0.0211,0 0.0315,0 0.7276,-0.0003 1.3252,0.5806 1.3426,1.3079l0.0003 -0.0001c0.0039,0.1014 0.3355,9.92 6.0211,13.4587 3.095,1.9265 7.343,1.675 12.623,-0.7483 0.6754,-0.3077 1.472,-0.0105 1.7798,0.6609 0.3077,0.6749 0.0139,1.472 -0.6611,1.7833 -3.304,1.5138 -6.3079,2.2729 -8.9827,2.2727z"/>
   <path id="_314303728" class="fil0" d="M134.379 85.8613c-2.276,0 -4.3045,-0.5699 -6.0668,-1.7099 -6.8705,-4.448 -6.8639,-15.8644 -6.8606,-16.347 0.0074,-0.7414 0.605,-1.3321 1.3429,-1.3321 0.0036,-0.0001 0.007,0 0.0104,0 0.7413,0.0034 1.3356,0.6084 1.3322,1.3497l0.0007 -0.0001c0,0.105 0.0027,10.4376 5.6394,14.0776 2.9512,1.9056 7.0668,1.668 12.2384,-0.7027 0.6755,-0.3078 1.472,-0.0141 1.78,0.6608 0.3116,0.6745 0.0137,1.4721 -0.6611,1.7798 -3.2309,1.4824 -6.1541,2.2239 -8.7555,2.2239z"/>
  </g>
 </g>
 <rect class="fil1" width="173.397" height="173.397"/>
</svg>
