<?xml version="1.0" encoding="UTF-8"?>
<!DOCTYPE svg PUBLIC "-//W3C//DTD SVG 1.1//EN" "http://www.w3.org/Graphics/SVG/1.1/DTD/svg11.dtd">
<!-- Creator: CorelDRAW -->
<svg xmlns="http://www.w3.org/2000/svg" xml:space="preserve" width="173.397mm" height="173.397mm" style="shape-rendering:geometricPrecision; text-rendering:geometricPrecision; image-rendering:optimizeQuality; fill-rule:evenodd; clip-rule:evenodd"
viewBox="0 0 173.397 173.397"
 xmlns:xlink="http://www.w3.org/1999/xlink">
 <defs>
  <style type="text/css">
   <![CDATA[
    .fil1 {fill:none}
    .fil0 {fill:#b7974f}
   ]]>
  </style>
 </defs>
 <g id="Layer_x0020_1">
  <metadata id="CorelCorpID_0Corel-Layer"/>
  <g id="_221909072">
   <path id="_221910464" class="fil0" d="M36.7026 39.028c-11.196,0 -20.3045,-7.4827 -20.3045,-16.6786 0.0005,-0.7416 0.6013,-1.3428 1.3425,-1.3428 0.7421,-0.0003 1.3427,0.6015 1.3427,1.3428 0.0004,7.7169 7.9022,13.9932 17.6193,13.9932 9.7138,-0.0002 17.6158,-6.2763 17.6158,-13.9932 0.0007,-0.7416 0.5979,-1.3428 1.3426,-1.3428 0.7414,-0.0003 1.3428,0.6015 1.3428,1.3428 0.0004,9.1959 -9.1087,16.6787 -20.3012,16.6786z"/>
   <path id="_221910416" class="fil0" d="M86.701 39.028c-9.9798,0 -18.0992,-7.4827 -18.0992,-16.6786 0.0003,-0.7416 0.6017,-1.3428 1.3429,-1.3428 0.7415,-0.0003 1.3427,0.6015 1.3427,1.3428 0.0007,7.7169 6.9127,13.9932 15.4129,13.9932 8.4974,-0.0002 15.4094,-6.2763 15.4094,-13.9932 0.0001,-0.7416 0.6015,-1.3428 1.3427,-1.3428 0.7415,-0.0003 1.3427,0.6015 1.3427,1.3428 0.0007,9.1959 -8.1191,16.6787 -18.0941,16.6786z"/>
   <path id="_221909480" class="fil0" d="M61.0535 39.028c-4.5772,0 -8.9449,-1.577 -12.2982,-4.4406 -0.5625,-0.4828 -0.6293,-1.3288 -0.1504,-1.8916 0.4832,-0.5631 1.3322,-0.633 1.8951,-0.1505 2.8679,2.451 6.6157,3.7973 10.5529,3.7973 4.5809,-0.0002 8.8918,-1.8321 11.8323,-5.0315 0.5042,-0.5458 1.3533,-0.584 1.8987,-0.0805 0.5456,0.5001 0.5804,1.3497 0.0805,1.8987 -3.4473,3.7482 -8.4828,5.8988 -13.8109,5.8987z"/>
   <path id="_221909912" class="fil0" d="M136.699 39.028c-11.1961,0 -20.3053,-7.4827 -20.3053,-16.6786 0.0005,-0.7416 0.6014,-1.3428 1.3426,-1.3428 0.7451,-0.0003 1.3427,0.6015 1.3427,1.3428 0.0002,7.7169 7.9058,13.9932 17.6194,13.9932 9.7135,-0.0002 17.6157,-6.2763 17.6157,-13.9932 0.0005,-0.7416 0.6014,-1.3428 1.3427,-1.3428 0.7419,-0.0003 1.3427,0.6015 1.3427,1.3428 0.0002,9.1959 -9.1087,16.6787 -20.3005,16.6786z"/>
   <path id="_221909744" class="fil0" d="M112.344 39.028c-5.3285,0 -10.364,-2.1503 -13.8117,-5.8987 -0.4997,-0.549 -0.465,-1.3986 0.0804,-1.8987 0.5457,-0.5035 1.3952,-0.465 1.8986,0.0805 2.9411,3.1991 7.252,5.0315 11.8325,5.0315 3.9379,-0.0002 7.6856,-1.3462 10.5527,-3.7973 0.5633,-0.4827 1.4127,-0.4125 1.8917,0.1505 0.4826,0.5626 0.4161,1.4091 -0.147,1.8916 -3.3528,2.8635 -7.7203,4.4407 -12.2972,4.4406z"/>
   <path id="_221910152" class="fil0" d="M17.7408 92.2039c-0.7411,0 -1.3427,-0.5978 -1.3427,-1.3424l0.0005 -68.5122c0,-0.7415 0.6008,-1.3427 1.342,-1.3427 0.7421,-0.0003 1.3427,0.6015 1.3427,1.3428l0.0004 68.512c0,0.7446 -0.6017,1.3427 -1.3429,1.3425zm20.8507 0.0036c-0.4618,0 -0.9098,-0.2412 -1.1616,-0.6677 -0.3741,-0.6403 -0.1574,-1.4616 0.4824,-1.8357 29.627,-17.3117 40.8822,-38.1338 45.106,-52.5502 0.21,-0.7135 0.9582,-1.1189 1.668,-0.9127 0.7102,0.2099 1.1189,0.9546 0.909,1.668 -4.3598,14.8846 -15.9375,36.3539 -46.3262,54.113 -0.2126,0.1259 -0.4476,0.1854 -0.6776,0.1853z"/>
   <path id="_221909552" class="fil0" d="M29.9752 92.2039c-0.4162,0 -0.8217,-0.1886 -1.0875,-0.5487 -0.4364,-0.5983 -0.3042,-1.4407 0.2937,-1.8778 17.9201,-13.0772 29.0741,-30.749 33.1546,-52.5221 0.1367,-0.7276 0.8392,-1.2098 1.5666,-1.0735 0.7313,0.1362 1.2098,0.8392 1.0734,1.5665 -1.7968,9.5911 -4.7728,18.1018 -9.0946,26.0181 -5.9365,10.867 -14.3884,20.35 -25.116,28.1825 -0.2371,0.1712 -0.5175,0.2552 -0.7902,0.255z"/>
   <path id="_221910008" class="fil0" d="M23.4478 92.2039c-0.3085,0 -0.6161,-0.1012 -0.8679,-0.3145 -0.5664,-0.4793 -0.6364,-1.3288 -0.1573,-1.8952 16.2208,-19.1721 21.1474,-46.543 22.2697,-54.4732 0.1018,-0.7343 0.7867,-1.2483 1.5175,-1.1434 0.7344,0.1046 1.2447,0.7832 1.1399,1.5175 -1.1465,8.1121 -6.1924,36.1127 -22.8782,55.8334 -0.2654,0.3145 -0.6433,0.4756 -1.0237,0.4754z"/>
   <path id="_221909408" class="fil0" d="M155.657 92.2039c-0.7419,0 -1.3434,-0.5978 -1.3434,-1.3424l0.0005 -68.5122c0,-0.7415 0.6009,-1.3427 1.3422,-1.3427 0.7419,-0.0003 1.3427,0.6015 1.3427,1.3428l0.0002 68.512c0,0.7446 -0.6016,1.3427 -1.3422,1.3425zm-20.8507 0.0036c-0.2305,0 -0.4652,-0.0593 -0.6784,-0.1853 -30.3888,-17.7558 -41.966,-39.2281 -46.3262,-54.113 -0.2095,-0.7136 0.1992,-1.4581 0.9089,-1.668 0.7139,-0.2063 1.4582,0.1994 1.668,0.9127 4.2242,14.4161 15.4794,35.2385 45.1059,52.5502 0.6404,0.3741 0.8566,1.1958 0.4826,1.8357 -0.2513,0.4265 -0.6994,0.6678 -1.1608,0.6677z"/>
   <path id="_221909864" class="fil0" d="M146.149 92.2039c-0.2761,0 -0.5527,-0.0802 -0.7905,-0.255 -18.5733,-13.5564 -30.749,-31.7386 -36.1932,-54.0397 -0.1744,-0.7206 0.2658,-1.4476 0.9861,-1.6225 0.7205,-0.1751 1.4476,0.2658 1.6225,0.986 5.2904,21.6682 17.1192,39.3331 35.1686,52.5047 0.5982,0.4368 0.7273,1.2798 0.2902,1.8778 -0.2616,0.3599 -0.6713,0.5489 -1.0837,0.5487z"/>
   <path id="_221909816" class="fil0" d="M152.485 92.2039c-0.3807,0 -0.7622,-0.1607 -1.0279,-0.4754 -16.8497,-19.9167 -23.2209,-47.5081 -24.7698,-55.4907 -0.1432,-0.7277 0.3321,-1.4301 1.0594,-1.5735 0.7313,-0.14 1.4335,0.3357 1.5769,1.0629 1.5177,7.8217 7.752,34.847 24.1859,54.267 0.4798,0.5662 0.4056,1.4162 -0.1608,1.8952 -0.2515,0.213 -0.5595,0.3147 -0.8637,0.3145z"/>
   <path id="_221909576" class="fil0" d="M46.3077 160.163l0.004 0 -0.004 0zm-26.9266 2.35c-2.0809,0 -3.9936,-0.4546 -5.2734,-1.7343 -0.2306,-0.2346 -0.3707,-0.5419 -0.3916,-0.8671 -0.1081,-1.8043 -2.6365,-44.4031 2.7413,-62.2147 0.2134,-0.7065 0.9615,-1.112 1.6713,-0.8952 0.7104,0.2131 1.112,0.9616 0.8987,1.6714 -4.9087,16.2659 -2.9512,55.4768 -2.6644,60.6972 2.5602,1.7235 9.3638,-0.1993 13.252,-1.9127 0.3398,-0.1503 0.7238,-0.1538 1.0665,-0.007 6.6229,2.8006 12.4619,2.1469 14.5038,1.7798 2.6299,-13.7418 -7.7974,-60.1727 -7.9023,-60.6482 -0.1643,-0.7239 0.2901,-1.4406 1.0105,-1.6049 0.7275,-0.1645 1.4441,0.2902 1.6085,1.0139 0.4549,2.0102 11.1051,49.4592 7.7065,62.7078 -0.1182,0.4649 -0.4827,0.8357 -0.9477,0.9615 -0.3145,0.084 -7.6819,2.0106 -16.4933,-1.5174 -1.7272,0.7167 -6.598,2.57 -10.7864,2.5699z"/>
   <path id="_221909312" class="fil0" d="M154.017 162.513c-4.1886,0 -9.06,-1.8531 -10.7873,-2.5699 -8.811,3.5277 -16.1752,1.6014 -16.4935,1.5174 -0.4649,-0.1261 -0.8286,-0.4965 -0.9475,-0.9615 -3.3984,-13.2487 7.2519,-60.6973 7.71,-62.7078 0.1608,-0.7241 0.8811,-1.1783 1.6049,-1.0139 0.7241,0.1639 1.1748,0.8811 1.014,1.6049 -0.1082,0.4755 -10.5352,46.8997 -7.9058,60.6448 2.0458,0.3634 7.9163,1.0104 14.504,-1.7764 0.3396,-0.1468 0.7272,-0.1433 1.0663,0.007 3.8883,1.7131 10.6926,3.633 13.2486,1.9127 0.2905,-5.2206 2.2483,-44.4346 -2.6609,-60.6972 -0.2128,-0.7101 0.1888,-1.4581 0.8986,-1.6714 0.7099,-0.2169 1.4581,0.1853 1.6714,0.8952 5.3779,17.8112 2.8497,60.4104 2.7412,62.2147 -0.0209,0.325 -0.1607,0.6328 -0.3915,0.8671 -1.2791,1.2759 -3.1924,1.7344 -5.2725,1.7343z"/>
   <path id="_221909288" class="fil0" d="M30.1609 159.828c-0.4752,0 -0.934,-0.248 -1.1787,-0.6921 -8.1362,-14.7592 -6.9338,-59.2042 -6.8779,-61.0888 0.0218,-0.7276 0.6189,-1.3043 1.3428,-1.3043 0.0109,0 0.0244,0 0.0384,0.0036 0.7419,0.0208 1.3252,0.6399 1.3043,1.3811 -0.0133,0.4543 -1.2413,45.592 6.542,59.7112 0.3609,0.6504 0.1223,1.4651 -0.5244,1.8252 -0.206,0.1118 -0.4301,0.1643 -0.6465,0.1641z"/>
   <path id="_221909144" class="fil0" d="M30.1955 99.4104c-0.0031,0 -0.0035,0.0001 -0.0035,0.0001 0.0004,-0.0001 0,0 0.0035,-0.0001zm7.9169 62.4838c-0.5704,0 -1.0986,-0.3669 -1.2804,-0.9368 -2.7548,-8.6995 -4.3288,-27.4762 -5.5911,-42.5639 -0.7196,-8.5809 -1.4615,-17.441 -2.1014,-19.2557 -0.2516,-0.1995 -0.4335,-0.4895 -0.4895,-0.8321 -0.1224,-0.7311 0.3706,-1.4232 1.1014,-1.5421 0.4166,-0.0702 0.8322,0.035 1.1714,0.3007 1.1404,0.8879 1.5314,3.647 2.993,21.1054 1.2518,14.9549 2.8113,33.5637 5.4757,41.9766 0.2243,0.7063 -0.1679,1.458 -0.8742,1.6853 -0.1327,0.0418 -0.2726,0.063 -0.4049,0.0626z"/>
   <path id="_221909360" class="fil0" d="M19.0837 96.7426l18.1648 0 0 -4.5387 -18.1648 0 0 4.5387zm19.5078 2.6851l-20.8507 0c-0.7411,0 -1.3427,-0.6011 -1.3427,-1.3423l0.0005 -7.224c0,-0.7415 0.6008,-1.3427 1.342,-1.3427l20.8509 -0.0003c0.7412,0 1.3419,0.6017 1.3419,1.3431l0.0003 7.2236c0,0.7415 -0.6016,1.3429 -1.3422,1.3426z"/>
   <path id="_221909120" class="fil0" d="M143.237 159.828c-0.2171,0 -0.441,-0.0522 -0.6473,-0.1641 -0.6468,-0.3602 -0.8846,-1.1748 -0.5245,-1.8252 7.7835,-14.1194 6.5561,-59.2566 6.5421,-59.7112 -0.0205,-0.7415 0.563,-1.3602 1.3042,-1.3811 0.7483,-0.0386 1.3602,0.5595 1.3812,1.3007 0.0564,1.8844 1.2587,46.3298 -6.8778,61.0888 -0.244,0.4439 -0.7028,0.6923 -1.1779,0.6921z"/>
   <path id="_221908736" class="fil0" d="M135.286 161.894c-0.1361,0 -0.273,-0.0206 -0.4059,-0.0626 -0.7058,-0.2238 -1.0979,-0.979 -0.8741,-1.6853 2.6646,-8.4132 4.2239,-27.0217 5.4756,-41.9766 1.4617,-17.4584 1.8532,-20.2172 2.9931,-21.1054 0.3395,-0.2623 0.7553,-0.3706 1.1714,-0.3007 0.7314,0.1187 1.2238,0.8113 1.1014,1.5421 -0.0554,0.3423 -0.2378,0.6328 -0.4896,0.8321 -0.6397,1.8111 -1.3811,10.6751 -2.1014,19.2557 -1.262,15.0875 -2.8357,33.8644 -5.5911,42.5639 -0.1811,0.5698 -0.7097,0.9372 -1.2794,0.9368z"/>
   <path id="_221909024" class="fil0" d="M136.149 96.7426l18.1648 0 0 -4.5387 -18.1648 0 0 4.5387zm19.5077 2.6851l-20.8507 0c-0.7411,0 -1.3428,-0.6011 -1.3428,-1.3423l0.0007 -7.224c0,-0.7415 0.6007,-1.3427 1.342,-1.3427l20.8508 -0.0003c0.7412,0 1.342,0.6017 1.342,1.3431l0.0002 7.2236c0,0.7415 -0.6016,1.3429 -1.3422,1.3426z"/>
   <path id="_221908880" class="fil0" d="M12.8457 21.0063l147.707 0 0 -7.437 -147.707 0 0 7.437zm149.049 2.6855l-150.392 0c-0.7411,0 -1.3427,-0.6012 -1.3427,-1.3424l0.0006 -10.123c0,-0.7411 0.6008,-1.3424 1.3421,-1.3424l150.392 -0.0002c0.7419,0 1.3426,0.6016 1.3426,1.343l0.0003 10.1225c0,0.7411 -0.6016,1.3427 -1.3429,1.3425z"/>
  </g>
 </g>
 <rect class="fil1" width="173.397" height="173.397"/>
</svg>
