<?xml version="1.0" encoding="UTF-8"?>
<!DOCTYPE svg PUBLIC "-//W3C//DTD SVG 1.1//EN" "http://www.w3.org/Graphics/SVG/1.1/DTD/svg11.dtd">
<!-- Creator: CorelDRAW -->
<svg xmlns="http://www.w3.org/2000/svg" xml:space="preserve" width="1.70666in" height="1.70666in" version="1.1" style="shape-rendering:geometricPrecision; text-rendering:geometricPrecision; image-rendering:optimizeQuality; fill-rule:evenodd; clip-rule:evenodd"
viewBox="0 0 1707 1707"
 xmlns:xlink="http://www.w3.org/1999/xlink">
 <defs>
  <style type="text/css">
   <![CDATA[
    .fil0 {fill:#b7974f}
   ]]>
  </style>
 </defs>
 <g id="Layer_x0020_1">
  <metadata id="CorelCorpID_0Corel-Layer"/>
  <g id="_610394120">
   <g>
    <g>
     <path class="fil0" d="M24 1175c-7,0 -12,-3 -16,-7 -4,-4 -7,-11 -7,-16l0 -412c0,-9 4,-16 11,-20 100,-69 198,-79 237,-80l115 -258c4,-9 13,-14 23,-14l280 0c14,0 25,11 25,25l0 513 990 0c14,0 25,11 25,25l0 221c0,13 -11,25 -25,25l-116 0c-14,0 -25,-12 -25,-25 0,-14 11,-25 25,-25l93 0 0 -172 -970 0 0 170 58 0c14,0 25,11 25,25 0,14 -11,25 -25,25l-237 0c-14,0 -25,-11 -25,-25 0,-14 11,-25 25,-25l130 0 0 -710 -238 0 -115 257c0,1 -2,2 -3,4 -2,3 -4,5 -7,7 -3,1 -7,2 -10,2 -1,0 -3,0 -4,0 -7,0 -110,-1 -214,66l0 373 122 -2c14,0 25,12 25,25 0,14 -11,25 -25,25l-4 0 -143 3c0,0 0,0 0,0zm1202 -1l-139 0c-14,0 -25,-11 -25,-25 0,-14 11,-25 25,-25l139 0c14,0 25,11 25,25 0,14 -13,25 -25,25z"/>
    </g>
    <g>
     <path class="fil0" d="M585 685l-168 0c-8,0 -15,-4 -19,-9 -5,-6 -6,-14 -5,-22l53 -174c3,-10 13,-17 24,-17l116 0c14,0 25,12 25,25l0 174c-1,14 -12,23 -26,23zm-136 -48l111 0 0 -125 -74 0 -37 125z"/>
    </g>
    <g>
     <path class="fil0" d="M341 1447c-118,0 -214,-96 -214,-214 0,-117 96,-213 214,-213 118,0 213,96 213,213 0,118 -95,214 -213,214zm0 -379c-92,0 -165,74 -165,165 0,92 75,166 165,166 90,0 165,-75 165,-166 0,-91 -74,-165 -165,-165z"/>
    </g>
    <g>
     <path class="fil0" d="M1395 1447c-118,0 -214,-96 -214,-214 0,-117 96,-213 214,-213 118,0 214,96 214,213 0,118 -96,214 -214,214zm0 -379c-91,0 -165,74 -165,165 0,92 75,166 165,166 92,0 165,-75 165,-166 0,-91 -73,-165 -165,-165z"/>
    </g>
    <g>
     <path class="fil0" d="M341 1349c-64,0 -115,-52 -115,-116 0,-62 51,-113 115,-113 64,0 115,51 115,113 0,63 -51,116 -115,116zm0 -182c-36,0 -67,29 -67,65 0,36 31,67 67,67 36,0 66,-31 66,-67 0,-35 -30,-65 -66,-65z"/>
    </g>
    <g>
     <path class="fil0" d="M1395 1349c-64,0 -115,-52 -115,-116 0,-62 51,-113 115,-113 64,0 115,51 115,113 0,63 -51,116 -115,116zm0 -182c-36,0 -67,29 -67,65 0,36 31,67 67,67 36,0 67,-31 67,-67 0,-35 -29,-65 -67,-65z"/>
    </g>
    <g>
     <path class="fil0" d="M117 1010l-93 0c-13,0 -25,-11 -25,-25 0,-14 12,-25 25,-25l68 0 0 -93 -68 0c-13,0 -25,-11 -25,-25 0,-14 12,-25 25,-25l93 0c14,0 25,11 25,25l0 145c-1,13 -12,23 -25,23z"/>
    </g>
    <g>
     <path class="fil0" d="M1643 953c-13,0 -25,-11 -25,-25l0 -618 -847 0 0 618c0,14 -11,25 -25,25 -14,0 -25,-11 -25,-25l0 -642c0,-14 11,-25 25,-25l897 0c14,0 25,11 25,25l0 644c0,12 -11,23 -25,23z"/>
    </g>
    <g>
     <path class="fil0" d="M1464 401c-13,0 -25,-11 -25,-25l0 -91c0,-14 12,-25 25,-25 14,0 25,11 25,25l0 91c-1,14 -12,25 -25,25z"/>
    </g>
    <g>
     <path class="fil0" d="M1643 493l-90 0c-14,0 -25,-11 -25,-25 0,-14 11,-25 25,-25l90 0c14,0 25,11 25,25 0,14 -11,25 -25,25zm0 -92l-90 0c-14,0 -25,-11 -25,-25 0,-14 11,-25 25,-25l90 0c14,0 25,11 25,25 0,14 -11,25 -25,25z"/>
    </g>
    <g>
     <path class="fil0" d="M1555 493l-181 0c-14,0 -25,-11 -25,-25l0 -92c0,-14 11,-25 25,-25l181 0c13,0 25,11 25,25l0 92c-2,15 -13,25 -25,25zm-157 -49l132 0 0 -43 -132 0 0 43z"/>
    </g>
    <g>
     <path class="fil0" d="M1643 677l-90 0c-14,0 -25,-11 -25,-25 0,-14 11,-25 25,-25l90 0c14,0 25,11 25,25 0,14 -11,25 -25,25zm0 -91l-90 0c-14,0 -25,-12 -25,-25 0,-14 11,-25 25,-25l90 0c14,0 25,11 25,25 0,13 -11,25 -25,25z"/>
    </g>
    <g>
     <path class="fil0" d="M1464 586c-13,0 -25,-12 -25,-25l0 -92c0,-14 12,-25 25,-25 14,0 25,11 25,25l0 92c-1,13 -12,25 -25,25z"/>
    </g>
    <g>
     <path class="fil0" d="M1464 586l-180 0c-14,0 -25,-12 -25,-25l0 -92c0,-14 11,-25 25,-25l90 0c14,0 25,11 25,25 0,14 -11,25 -25,25l-65 0 0 43 155 0c14,0 25,11 25,25 0,14 -12,24 -25,24z"/>
    </g>
    <g>
     <path class="fil0" d="M1553 677l-179 0c-14,0 -25,-11 -25,-25l0 -91c0,-14 11,-25 25,-25l179 0c14,0 25,11 25,25l0 91c0,14 -11,25 -25,25zm-155 -48l132 0 0 -43 -131 0 0 43 -1 0z"/>
    </g>
    <g>
     <path class="fil0" d="M1284 586l-90 0c-14,0 -25,-12 -25,-25 0,-14 11,-25 25,-25l90 0c14,0 25,11 25,25 0,13 -11,25 -25,25z"/>
    </g>
    <g>
     <path class="fil0" d="M1194 677c-14,0 -25,-11 -25,-25l0 -68 -130 0 0 68c0,14 -12,25 -25,25 -14,0 -25,-11 -25,-25l0 -91c0,-14 11,-25 25,-25l179 0c13,0 23,11 23,25l0 91c3,14 -8,25 -22,25z"/>
    </g>
    <g>
     <path class="fil0" d="M1643 769l-180 0c-14,0 -25,-11 -25,-25 0,-14 11,-25 25,-25l180 0c14,0 25,11 25,25 0,14 -11,25 -25,25zm0 -92l-180 0c-14,0 -25,-11 -25,-25 0,-14 11,-25 25,-25l180 0c14,0 25,11 25,25 0,14 -11,25 -25,25z"/>
    </g>
    <g>
     <path class="fil0" d="M1464 769c-13,0 -25,-11 -25,-25l0 -92c0,-14 12,-25 25,-25 14,0 24,13 24,25l0 92c0,14 -11,25 -24,25zm-180 0c-14,0 -25,-11 -25,-25l0 -92c0,-14 11,-25 25,-25l90 0c14,0 25,11 25,25 0,14 -11,25 -25,25l-65 0 0 68c0,13 -11,24 -25,24z"/>
    </g>
    <g>
     <path class="fil0" d="M1284 677l-179 0c-14,0 -25,-11 -25,-25 0,-14 11,-25 25,-25l179 0c14,0 25,11 25,25 0,14 -11,25 -25,25z"/>
    </g>
    <g>
     <path class="fil0" d="M1105 769c-14,0 -25,-11 -25,-25l0 -68 -154 0c-14,0 -25,-11 -25,-25 0,-14 11,-25 25,-25l181 0c13,0 24,11 24,25l0 91c-1,16 -12,27 -26,27z"/>
    </g>
    <g>
     <path class="fil0" d="M926 769c-14,0 -25,-11 -25,-25l0 -68 -155 0c-14,0 -25,-11 -25,-25 0,-14 11,-25 25,-25l180 0c14,0 25,11 25,25l0 91c-1,16 -12,27 -25,27z"/>
    </g>
    <g>
     <path class="fil0" d="M1555 862c-14,0 -25,-11 -25,-25l0 -93c0,-14 11,-25 25,-25 13,0 25,11 25,25l0 93c-2,14 -13,25 -25,25zm-91 -93l-90 0c-14,0 -25,-11 -25,-25 0,-14 11,-25 25,-25l90 0c14,0 25,11 25,25 0,14 -12,25 -25,25z"/>
    </g>
    <g>
     <path class="fil0" d="M1374 862c-14,0 -25,-11 -25,-25l0 -68 -155 0c-14,0 -25,-11 -25,-25 0,-14 11,-25 25,-25l180 0c14,0 25,11 25,25l0 93c-1,14 -11,25 -25,25z"/>
    </g>
    <g>
     <path class="fil0" d="M1194 862c-14,0 -25,-11 -25,-25l0 -68 -153 0c-14,0 -25,-11 -25,-25 0,-14 11,-25 25,-25l179 0c14,0 24,11 24,25l0 93c0,14 -11,25 -25,25z"/>
    </g>
    <g>
     <path class="fil0" d="M1016 862c-14,0 -25,-11 -25,-25l0 -68 -155 0c-14,0 -25,-11 -25,-25 0,-14 11,-25 25,-25l180 0c14,0 25,11 25,25l0 93c-1,14 -12,25 -25,25z"/>
    </g>
    <g>
     <path class="fil0" d="M836 862c-14,0 -25,-11 -25,-25l0 -68 -65 0c-14,0 -25,-11 -25,-25 0,-14 11,-25 25,-25l90 0c14,0 25,11 25,25l0 93c-1,14 -11,25 -25,25z"/>
    </g>
    <g>
     <path class="fil0" d="M1643 862l-180 0c-14,0 -25,-11 -25,-25 0,-14 11,-25 25,-25l180 0c14,0 25,11 25,25 0,14 -11,25 -25,25z"/>
    </g>
    <g>
     <path class="fil0" d="M1464 953c-13,0 -25,-11 -25,-25l0 -66 -155 0c-14,0 -25,-11 -25,-25 0,-14 11,-25 25,-25l180 0c14,0 25,11 25,25l0 91c-1,14 -12,25 -25,25z"/>
    </g>
    <g>
     <path class="fil0" d="M1284 953c-14,0 -25,-11 -25,-25l0 -66 -154 0c-14,0 -25,-11 -25,-25 0,-14 11,-25 25,-25l179 0c14,0 25,11 25,25l0 91c0,14 -11,25 -25,25z"/>
    </g>
    <g>
     <path class="fil0" d="M1105 953c-14,0 -25,-11 -25,-25l0 -66 -154 0c-14,0 -25,-11 -25,-25 0,-14 11,-25 25,-25l181 0c13,0 24,11 24,25l0 91c-1,14 -12,25 -26,25z"/>
    </g>
    <g>
     <path class="fil0" d="M926 953c-14,0 -25,-11 -25,-25l0 -66 -155 0c-14,0 -25,-11 -25,-25 0,-14 11,-25 25,-25l180 0c14,0 25,11 25,25l0 91c-1,14 -12,25 -25,25z"/>
    </g>
    <g>
     <path class="fil0" d="M916 1447c-117,0 -213,-96 -213,-214 0,-117 96,-213 213,-213 118,0 214,96 214,213 1,118 -96,214 -214,214zm0 -379c-91,0 -165,74 -165,165 0,92 75,166 165,166 91,0 166,-75 166,-166 1,-91 -74,-165 -166,-165z"/>
    </g>
    <g>
     <path class="fil0" d="M916 1349c-63,0 -115,-52 -115,-116 0,-62 52,-113 115,-113 64,0 116,51 116,113 0,63 -52,116 -116,116zm0 -182c-36,0 -66,29 -66,65 0,36 30,67 66,67 37,0 67,-31 67,-67 0,-35 -29,-65 -67,-65z"/>
    </g>
    <g>
     <path class="fil0" d="M585 817l-167 0c-13,0 -25,-11 -25,-25 0,-14 12,-25 25,-25l166 0c13,0 24,11 24,25 0,14 -11,25 -23,25z"/>
    </g>
   </g>
  </g>
 </g>
</svg>
