<?xml version="1.0" encoding="UTF-8"?>
<!DOCTYPE svg PUBLIC "-//W3C//DTD SVG 1.1//EN" "http://www.w3.org/Graphics/SVG/1.1/DTD/svg11.dtd">
<!-- Creator: CorelDRAW -->
<svg xmlns="http://www.w3.org/2000/svg" xml:space="preserve" width="1.70666in" height="1.70666in" version="1.1" style="shape-rendering:geometricPrecision; text-rendering:geometricPrecision; image-rendering:optimizeQuality; fill-rule:evenodd; clip-rule:evenodd"
viewBox="0 0 1707 1707"
 xmlns:xlink="http://www.w3.org/1999/xlink">
 <defs>
  <style type="text/css">
   <![CDATA[
    .fil0 {fill:#b7974f}
   ]]>
  </style>
 </defs>
 <g id="Layer_x0020_1">
  <metadata id="CorelCorpID_0Corel-Layer"/>
  <g id="_510152752">
   <g>
    <g>
     <path class="fil0" d="M1348 1449l-364 0c-13,0 -25,-11 -25,-25 0,-14 12,-25 25,-25l364 0c14,0 25,11 25,25 0,14 -11,25 -25,25z"/>
    </g>
    <g>
     <path class="fil0" d="M1423 1189l-364 0c-14,0 -25,-11 -25,-25 0,-14 11,-25 25,-25l364 0c14,0 25,11 25,25 0,14 -11,25 -25,25z"/>
    </g>
    <g>
     <path class="fil0" d="M1342 931l-363 0c-14,0 -25,-11 -25,-25 0,-14 11,-25 25,-25l363 0c14,0 25,11 25,25 0,14 -11,25 -25,25z"/>
    </g>
    <g>
     <path class="fil0" d="M305 905c-50,0 -91,-40 -91,-92 0,-50 41,-90 91,-90 50,0 90,40 90,90 0,50 -40,92 -90,92zm0 -133c-24,0 -42,18 -42,41 0,24 18,43 42,43 23,0 41,-18 41,-43 0,-22 -18,-41 -41,-41z"/>
    </g>
    <g>
     <path class="fil0" d="M1348 1707l-401 0c-407,0 -506,-89 -511,-93 -9,-10 -11,-25 -1,-35 10,-10 25,-11 35,-1 0,0 97,79 477,79l401 0c72,0 104,-53 104,-106 0,-52 -32,-105 -104,-105 -14,0 -25,-11 -25,-25 0,-14 11,-25 25,-25l75 0c72,0 104,-53 104,-106 0,-52 -32,-105 -104,-105 -14,0 -25,-11 -25,-25 0,-14 11,-25 25,-25 72,0 104,-53 104,-105 0,-53 -32,-106 -104,-106l-81 0c-13,0 -25,-11 -25,-25 0,-14 12,-25 25,-25 73,0 104,-52 104,-105 0,-53 -31,-106 -104,-106l-395 0c-8,0 -17,-4 -21,-11 -4,-7 -5,-15 -1,-23 1,-2 79,-174 65,-382l0 -5c-8,-111 -21,-196 -110,-202 -61,-2 -72,63 -80,157 -3,27 -6,52 -10,72 -76,332 -316,460 -326,464 -12,5 -26,1 -33,-10 -6,-12 -2,-26 10,-33l0 0c2,-2 230,-124 299,-423 4,-18 7,-42 9,-66 8,-87 20,-206 131,-201 138,9 149,151 156,246l0 5c11,167 -32,308 -56,371l360 0c100,0 152,77 152,154 0,39 -14,79 -40,108 80,14 122,83 122,151 0,50 -22,100 -67,129 45,29 67,79 67,129 0,67 -40,133 -116,150 27,29 41,69 41,108 3,78 -50,156 -151,156z"/>
    </g>
    <g>
     <path class="fil0" d="M416 1696l-222 0c-34,0 -61,-28 -61,-61l0 -961c0,-33 27,-61 61,-61l222 0c33,0 61,28 61,61l0 961c0,33 -28,61 -61,61zm-222 -1034c-6,0 -13,4 -13,12l0 961c0,8 7,12 13,12l222 0c5,0 12,-4 12,-12l0 -961c0,-8 -7,-12 -12,-12l-222 0z"/>
    </g>
   </g>
  </g>
 </g>
</svg>
