<svg width="292.549" height="336.892" viewBox="0 0 77.404 89.136" xmlns="http://www.w3.org/2000/svg"><g stroke-linecap="round" fill="#fff"><path d="M49.4 8.046c-1.517-.004-3.807 1.392-6.87 4.187-3.183-1.268-6.267-1.937-9.254-2.008-.442-.01-.883-.008-1.323.009-5.255.198-10.327 2.333-15.215 6.404-1.954 1.52-5.055 2.906-9.303 4.162-1.354-.11-1.956.695-1.805 2.417-1.734 3.122.112 5.815 5.538 8.08-.285-.393-.368-.653-.247-.78a.218.218 0 01.064-.046c2.203 1.55 4.641 2.407 7.314 2.57-.592-.755-.816-1.357-.674-1.806 1.898 1.49 3.98 2.448 6.243 2.877.164 1.999-.193 3.631-1.07 4.896 1.897-.326 3.753-1.091 5.569-2.295.897 1.305 1.03 3.07.398 5.294 1.662-1.682 3.324-2.696 4.986-3.041l.094-.019c1.203 1.163 1.948 2.765 2.233 4.805 2.081-2.652 4.78-4.231 8.097-4.736-4.194 2.443-6.87 6.275-8.03 11.495-1.232-4.575-2.52-7.246-3.865-8.013a2.686 2.686 0 00-.057-.031c-3.632 1.223-5.916 4.987-6.855 11.292 1.224-2.061 2.336-3.296 3.336-3.704-2.55 6.59-3.942 12.33-4.175 17.223.467-1.42 1.33-2.74 2.586-3.959-2.434 7.554-2.314 14.287.36 20.198.322.617.202.617 3.523.617.183-.92.225-2.093.155-3.694a9.676 9.676 0 01.971 3.694h.845c.182-.92.211-2.103.129-3.725l.02.03c.658 1.352.909 2.507.974 3.695.354 0 .512.005.743 0 .183-.92.22-2.103.137-3.725l.02.03c.543.866.868 2.105.97 3.695h.672c.183-.92.205-2.103.123-3.725l.02.03c.56 1.206.822 2.525.974 3.695.603.021.836-.19.698-.818-.612-3.203-1.668-5.94-3.167-8.207 1.162.69 2.042 1.697 2.641 3.023-.27-7.782.622-13.608 2.678-17.476 1.007.369 1.337.6 1.952 2.342.074-3.209.499-4.379 2.204-5.974-.003 3.428.945 5.985 2.844 7.671.526-4.07 1.804-5.84 3.032-6.442 1.024.88 1.716 1.496 1.96 4.18.984-1.85 1.354-2.029 2.503-2.46 2.36 4.636 2.194 10.195 1.86 14.989.237-.934.915-1.793 2.035-2.576-1.148 1.912-1.892 5.551-2.232 10.918-.03.585.089.83.347.83h.275c.13-1.635.476-2.901 1.03-3.785l.021-.03c-.082 1.622-.03 2.895.152 3.815h.724c.094-1.648.421-2.897.977-3.785l.02-.03c-.081 1.622-.03 2.893.152 3.813l.552.002c.21-1.632.593-2.9 1.15-3.785-.068 1.602-.011 2.865.172 3.785.698.001 0-.002.698 0 .233-1.621.627-2.904 1.183-3.785l.02-.03c-.082 1.622-.032 2.893.151 3.813.093.002.237.002.322.002 3.071 0 3.07 0 3.572-1.053 2.998-6.927 3.516-16.059 1.556-27.395 1 1.428 1.653 2.99 1.959 4.682.408-5.732-.623-11.944-3.092-18.636 1.551 1.122 2.786 3 3.704 5.631-.674-7.997-2.806-14.465-6.397-19.403 1.612.857 3.107 2.35 4.486 4.477-2.594-7.34-6.666-12.709-12.217-16.102 1.625 3.405 2.162 7.495 1.611 12.269-.592-4-1.84-7.66-3.747-10.983.05 3.16-.518 5.495-1.706 7.005.126-5.57-.504-9.063-1.892-10.478-.004.936-.486 1.898-1.446 2.886 1.086-5.986.52-8.982-1.696-8.988zm21.093 24.39l.074.207-.071-.203-.003-.003zM49.544 9.968c.321 2.045-.026 3.85-1.043 5.417-.23-1.295-.518-2.203-.864-2.725l-.021-.03c-1.026.464-2.128.413-3.306-.153 1.98-.55 3.724-1.387 5.234-2.509zm-28.646 7.015c1.148-.025 2.107.523 2.878 1.645-1.754.735-3.274.317-4.559-1.254.6-.25 1.16-.38 1.681-.39zm28.336 6.253c.436 3.476 1.923 6.055 4.46 7.737-2.117.266-4.191.138-6.223-.383.873 1.595 1.11 3.659.71 6.19-2.119-3.12-5.664-4.843-10.637-5.171 3.092-.914 5.864-.809 8.315.316.067-.924-.84-2.682-2.718-5.275 2.55 1.871 4.674 2.824 6.37 2.857-.806-2.468-.898-4.558-.277-6.27zm11.385 8.37c2.022 8.59-.397 14.481-7.257 17.674 2.084-2.251 3.308-4.13 3.674-5.637-2.632 1.742-5.836 2.41-9.61 2.007 8.14-2.568 12.538-7.25 13.193-14.044z"/><path d="M27.007 10.509c2.944-.91 6.254-1.068 9.333-.606-5.088-6.611-8.33-6.66-9.333.606z"/></g></svg>