<?xml version="1.0" encoding="UTF-8" standalone="no"?>
<svg
   width="77.403648mm"
   height="89.136101mm"
   viewBox="0 0 77.403648 89.136101"
   version="1.1"
   id="svg1525"
   sodipodi:docname="Logo_brazowy.svg"
   inkscape:version="1.1.2 (b8e25be833, 2022-02-05)"
   xmlns:inkscape="http://www.inkscape.org/namespaces/inkscape"
   xmlns:sodipodi="http://sodipodi.sourceforge.net/DTD/sodipodi-0.dtd"
   xmlns="http://www.w3.org/2000/svg"
   xmlns:svg="http://www.w3.org/2000/svg"
   xmlns:rdf="http://www.w3.org/1999/02/22-rdf-syntax-ns#"
   xmlns:cc="http://creativecommons.org/ns#"
   xmlns:dc="http://purl.org/dc/elements/1.1/">
  <defs
     id="defs1519" />
  <sodipodi:namedview
     id="base"
     pagecolor="#ffffff"
     bordercolor="#666666"
     borderopacity="1.0"
     inkscape:pageopacity="0.0"
     inkscape:pageshadow="2"
     inkscape:zoom="1.4"
     inkscape:cx="-105.71429"
     inkscape:cy="60.714286"
     inkscape:document-units="mm"
     inkscape:current-layer="layer1"
     inkscape:document-rotation="0"
     showgrid="false"
     inkscape:window-width="1920"
     inkscape:window-height="1009"
     inkscape:window-x="-8"
     inkscape:window-y="-8"
     inkscape:window-maximized="1"
     inkscape:pagecheckerboard="0"
     fit-margin-top="5"
     lock-margins="true"
     fit-margin-left="5"
     fit-margin-right="5"
     fit-margin-bottom="5" />
  <metadata
     id="metadata1522">
    <rdf:RDF>
      <cc:Work
         rdf:about="">
        <dc:format>image/svg+xml</dc:format>
        <dc:type
           rdf:resource="http://purl.org/dc/dcmitype/StillImage" />
      </cc:Work>
    </rdf:RDF>
  </metadata>
  <g
     inkscape:label="Warstwa 1"
     inkscape:groupmode="layer"
     id="layer1"
     transform="translate(-152.30056,-141.59433)">
    <g
       id="g2507-7-2-8"
       transform="matrix(0.08040217,0,0,0.08040217,170.37166,143.63057)"
       style="fill:#502d16;fill-opacity:1"
       inkscape:export-xdpi="120"
       inkscape:export-ydpi="120">
      <g
         stroke-linecap="round"
         id="Layer_1_Copy-8-6-0"
         transform="matrix(1.1098692,0,0,1.1098692,-174.51274,8.0504079)"
         style="fill:#502d16;fill-opacity:1">
        <path
           id="path864-3-1-6"
           d="m 508.31222,60.097001 c -16.99903,-0.04655 -42.66146,15.592187 -76.98959,46.914059 -35.66,-14.206663 -70.22718,-21.706663 -103.70052,-22.499997 -4.95333,-0.12 -9.89364,-0.08771 -14.8203,0.09896 -58.89333,2.226667 -115.72667,26.150827 -170.5,71.770827 -21.9,17.02 -56.65,32.56469 -104.249999,46.63803 -15.179999,-1.24 -21.922501,7.7874 -20.229167,27.08071 -19.4399991,34.98668 1.246562,65.16835 62.059894,90.54168 -3.2,-4.40001 -4.124166,-7.31177 -2.770833,-8.73177 0.193333,-0.20667 0.434688,-0.37823 0.721355,-0.51823 24.68667,17.37334 52.00499,26.9728 81.95834,28.79947 -6.63334,-8.46 -9.14948,-15.20509 -7.54948,-20.23176 21.26666,16.68667 44.5876,27.43176 69.96093,32.23176 1.83333,22.40666 -2.16667,40.69646 -12,54.8698 21.26,-3.65334 42.06219,-12.22803 62.40885,-25.72136 10.06,14.63333 11.5476,34.41073 4.46093,59.33073 18.62667,-18.84667 37.25355,-30.2074 55.88022,-34.08073 0.34666,-0.0733 0.69614,-0.14167 1.04948,-0.20834 13.48666,13.03334 21.82864,30.97855 25.02864,53.83855 23.32,-29.72 53.5651,-47.41032 90.73177,-53.07032 -46.99334,27.38 -76.99219,70.32032 -89.99219,128.82032 -13.79333,-51.27334 -28.22989,-81.20615 -43.30989,-89.79948 -0.21333,-0.12 -0.42469,-0.23563 -0.63803,-0.34896 -40.69333,13.71333 -66.29655,55.8924 -76.80989,126.53906 13.71334,-23.09333 26.17355,-36.92666 37.38021,-41.5 -28.57999,73.84667 -44.17833,138.18 -46.79166,193 5.24,-15.90667 14.90177,-30.69271 28.98176,-44.35937 -27.27333,84.65333 -25.93135,160.09853 4.02865,226.33852 3.62093,6.91063 2.26744,6.91063 39.49001,6.91063 2.04667,-10.30667 2.51915,-23.44977 1.73915,-41.38977 7.14041,14.71968 10.00479,28.21772 10.87655,41.38977 h 9.46392 c 2.04666,-10.30667 2.37117,-23.56537 1.45117,-41.7387 0.007,-0.007 0.0825,0.10146 0.22917,0.32812 7.36492,15.15867 10.1806,28.0975 10.90888,41.41058 3.96283,0 5.73879,0.0643 8.33116,0 2.04667,-10.30667 2.45082,-23.56561 1.53082,-41.73894 0.007,-0.007 0.0825,0.10146 0.22917,0.32812 6.08,9.71333 9.72103,23.59749 10.86769,41.41082 h 7.53163 c 2.04667,-10.30667 2.29153,-23.5656 1.37153,-41.73893 0.007,-0.007 0.0825,0.10147 0.22918,0.32812 6.27873,13.51884 9.20598,28.30784 10.90898,41.41081 6.76667,0.24 9.3774,-2.12083 7.83074,-9.16083 -6.86667,-35.89999 -18.69626,-66.55541 -35.48959,-91.96874 13.01333,7.72 22.87781,19.00979 29.59115,33.86979 -3.03334,-87.20667 6.96781,-152.48781 30.00781,-195.84115 11.29149,4.13839 14.97953,6.73526 21.8776,26.25 0.82494,-35.95577 5.58557,-49.07088 24.6927,-66.9479 -0.0267,38.42 10.60022,67.07541 31.88022,85.96874 5.89146,-45.62209 20.21333,-65.43952 33.97134,-72.1901 11.48127,9.86528 19.2316,16.76352 21.96876,46.82813 11.02673,-20.72713 15.17425,-22.72551 28.04385,-27.56171 26.44143,51.96106 24.58678,114.25316 20.84678,167.97316 2.65333,-10.46667 10.2528,-20.08979 22.79948,-28.8698 -12.86,21.42667 -21.1971,62.21272 -25.01043,122.35938 -0.34024,6.55183 0.99751,9.29103 3.89439,9.29103 0.70462,-0.009 2.28825,0 3.07906,0 1.46667,-18.32 5.33406,-32.50436 11.54739,-42.41102 0.14667,-0.22667 0.22249,-0.33479 0.22916,-0.32812 -0.92,18.17333 -0.34329,32.43247 1.70337,42.73914 h 8.11123 c 1.05333,-18.46 4.72291,-32.45793 10.95624,-42.41126 0.14667,-0.22667 0.22249,-0.33479 0.22916,-0.32812 -0.92,18.17333 -0.35656,32.41207 1.69011,42.71874 l 6.18514,0.0207 c 2.36,-18.28667 6.64892,-32.49134 12.89559,-42.41133 -0.76667,17.95333 -0.12747,32.10463 1.91927,42.4113 7.82031,0.0207 0,-0.0207 7.82031,0 2.61332,-18.16001 7.03375,-32.53803 13.26042,-42.41136 0.14666,-0.22666 0.22249,-0.33478 0.22916,-0.32812 -0.92,18.17333 -0.35656,32.41208 1.6901,42.71875 1.04364,0.0207 2.65848,0.0207 3.60595,0.0207 34.41976,0 34.41227,0 40.03468,-11.79938 33.58667,-77.62 39.39636,-179.95218 17.42969,-306.99218 11.20667,16.00667 18.52386,33.49801 21.95052,52.47134 4.57334,-64.23999 -6.97396,-133.85447 -34.64062,-208.84114 17.38,12.57334 31.21333,33.60823 41.5,63.10156 -7.54667,-89.62 -31.4397,-162.09634 -71.6797,-217.42967 18.05707,9.60156 34.81362,26.3217 50.27344,50.16145 -29.07436,-82.25595 -74.70446,-142.41288 -136.91406,-180.4427 18.21333,38.16 24.23323,83.98958 18.05989,137.48958 -6.63333,-44.81333 -20.62957,-85.83698 -41.98957,-123.07032 0.56,35.40667 -5.81313,61.57333 -19.1198,78.5 1.41333,-62.42666 -5.65385,-101.56593 -21.20052,-117.41926 -0.0533,10.48666 -5.455,21.26406 -16.20833,32.33073 12.17172,-67.073147 5.83414,-100.644695 -19.01057,-100.712729 z m 236.3828,273.325509 c 0.27282,0.77184 0.55563,1.53158 0.82552,2.3073 l -0.79948,-2.27083 c -0.008,-0.0133 -0.0179,-0.0237 -0.026,-0.0365 z M 509.932,81.620438 c 3.6,22.920002 -0.29676,43.153852 -11.69009,60.700522 -2.57333,-14.50667 -5.79969,-24.68459 -9.67969,-30.53126 l -0.23959,-0.33853 c -11.49333,5.2 -23.84167,4.62905 -37.04167,-1.71095 22.18,-6.17333 41.73104,-15.546449 58.65104,-28.119782 z M 188.919,160.23502 c 12.8571,-0.28589 23.60844,5.85823 32.2526,18.4349 -19.66,8.23333 -36.68854,3.54677 -51.08855,-14.0599 6.71459,-2.7875 12.9918,-4.24505 18.83595,-4.375 z m 317.53384,70.07552 c 4.89334,38.94667 21.55249,67.84719 49.97916,86.70052 -23.72,2.97333 -46.96249,1.54167 -69.72916,-4.29167 9.78,17.87334 12.43167,40.99645 7.95834,69.36979 -23.74667,-34.96 -63.48167,-54.27833 -119.20833,-57.95833 34.65333,-10.24 65.71301,-9.05719 93.17967,3.54948 0.75334,-10.35334 -9.40093,-30.05979 -30.46093,-59.11979 28.58667,20.97333 52.38396,31.64489 71.39063,32.01823 -9.03334,-27.66 -10.06938,-51.08156 -3.10938,-70.26823 z m 127.58855,93.78905 c 22.65333,96.26 -4.45366,162.2799 -81.32032,198.0599 23.34666,-25.22666 37.06812,-46.28261 41.16145,-63.16927 -29.49333,19.51999 -65.39009,27.01625 -107.69009,22.48958 91.22,-28.78 140.50229,-81.24021 147.84896,-157.38021 z"
           style="fill:#502d16;fill-opacity:1;stroke:none;stroke-width:1.33333;stroke-opacity:1"
           sodipodi:nodetypes="scccccccccccccccccccccccccccccccccccccccccccccccccccccccccccccccccccccccccccccccccccccscccccsccccsccsccccccccccccccc" />
        <path
           d="M 257.37484,87.690231 C 290.36509,77.503363 327.45357,75.724518 361.96634,80.908419 304.94853,6.8171687 268.62151,6.2702307 257.37484,87.690231 Z"
           fill="none"
           stroke="#000000"
           stroke-width="2"
           stroke-opacity="1"
           stroke-linejoin="round"
           id="path880-6-3-2"
           style="fill:#502d16;fill-opacity:1;stroke:none"
           sodipodi:nodetypes="ccc" />
      </g>
    </g>
  </g>
</svg>
